<svg id="Capa_1" enable-background="new 0 0 510 510" height="512" viewBox="0 0 510 510" width="512" xmlns="http://www.w3.org/2000/svg" xmlns:xlink="http://www.w3.org/1999/xlink"><linearGradient id="lg1"><stop offset="0" stop-color="#fd8087"/><stop offset=".5213" stop-color="#fb2b3a"/><stop offset="1" stop-color="#d90d80"/></linearGradient><linearGradient id="SVGID_1_" gradientTransform="matrix(1 0 0 -1 0 512)" gradientUnits="userSpaceOnUse" x1="0" x2="510" xlink:href="#lg1" y1="257" y2="257"/><linearGradient id="lg2"><stop offset="0" stop-color="#fef056"/><stop offset=".5213" stop-color="#f4d902"/><stop offset="1" stop-color="#fe9738"/></linearGradient><linearGradient id="SVGID_2_" gradientTransform="matrix(1 0 0 -1 0 512)" gradientUnits="userSpaceOnUse" x1="299.575" x2="561.11" xlink:href="#lg2" y1="121" y2="121"/><linearGradient id="SVGID_3_" gradientTransform="matrix(1 0 0 -1 0 512)" gradientUnits="userSpaceOnUse" x1="187.997" x2="480.652" xlink:href="#lg2" y1="197.372" y2="197.372"/><linearGradient id="SVGID_4_" gradientTransform="matrix(1 0 0 -1 0 512)" gradientUnits="userSpaceOnUse" x1="187.997" x2="480.652" xlink:href="#lg2" y1="121" y2="121"/><linearGradient id="SVGID_5_" gradientTransform="matrix(1 0 0 -1 0 512)" gradientUnits="userSpaceOnUse" x1="295.699" x2="444.353" xlink:href="#lg2" y1="100.026" y2="100.026"/><linearGradient id="SVGID_6_" gradientTransform="matrix(1 0 0 -1 0 512)" gradientUnits="userSpaceOnUse" x1="287.493" x2="428.255" xlink:href="#lg2" y1="100.026" y2="100.026"/><linearGradient id="SVGID_7_" gradientTransform="matrix(1 0 0 -1 0 512)" gradientUnits="userSpaceOnUse" x1="287.493" x2="428.255" xlink:href="#lg2" y1="101.654" y2="101.654"/><linearGradient id="SVGID_8_" gradientTransform="matrix(1 0 0 -1 0 512)" gradientUnits="userSpaceOnUse" x1="287.493" x2="428.255" xlink:href="#lg2" y1="133.102" y2="133.102"/><linearGradient id="SVGID_9_" gradientTransform="matrix(1 0 0 -1 0 512)" gradientUnits="userSpaceOnUse" x1="-57" x2="409.01" xlink:href="#lg1" y1="132.401" y2="132.401"/><linearGradient id="SVGID_10_" gradientTransform="matrix(1 0 0 -1 0 512)" gradientUnits="userSpaceOnUse" x1="-57" x2="409.01" xlink:href="#lg1" y1="349.384" y2="349.384"/><linearGradient id="SVGID_11_" gradientTransform="matrix(1 0 0 -1 0 512)" gradientUnits="userSpaceOnUse" x1="-57" x2="409.01" xlink:href="#lg1" y1="98.927" y2="98.927"/><linearGradient id="SVGID_12_" gradientTransform="matrix(1 0 0 -1 0 512)" gradientUnits="userSpaceOnUse" x1="35.461" x2="275.363" xlink:href="#lg1" y1="157.412" y2="157.412"/><linearGradient id="SVGID_13_" gradientTransform="matrix(1 0 0 -1 0 512)" gradientUnits="userSpaceOnUse" x1="-20.422" x2="267.579" xlink:href="#lg1" y1="157.411" y2="157.411"/><linearGradient id="SVGID_14_" gradientTransform="matrix(1 0 0 -1 0 512)" gradientUnits="userSpaceOnUse" x1="-20.422" x2="267.579" xlink:href="#lg1" y1="160.039" y2="160.039"/><linearGradient id="SVGID_15_" gradientTransform="matrix(1 0 0 -1 0 512)" gradientUnits="userSpaceOnUse" x1="-20.422" x2="267.579" xlink:href="#lg1" y1="210.79" y2="210.79"/><linearGradient id="lg3"><stop offset="0" stop-color="#814aa0"/><stop offset="1" stop-color="#192a7d"/></linearGradient><linearGradient id="SVGID_16_" gradientTransform="matrix(1 0 0 -1 0 512)" gradientUnits="userSpaceOnUse" x1="25.867" x2="271.201" xlink:href="#lg3" y1="400.372" y2="400.372"/><linearGradient id="SVGID_17_" gradientTransform="matrix(1 0 0 -1 0 512)" gradientUnits="userSpaceOnUse" x1="-78.8" x2="195.727" xlink:href="#lg3" y1="472.013" y2="472.013"/><linearGradient id="SVGID_18_" gradientTransform="matrix(1 0 0 -1 0 512)" gradientUnits="userSpaceOnUse" x1="-78.8" x2="195.727" xlink:href="#lg3" y1="400.372" y2="400.372"/><linearGradient id="SVGID_19_" gradientTransform="matrix(1 0 0 -1 0 512)" gradientUnits="userSpaceOnUse" x1="22.231" x2="161.677" xlink:href="#lg3" y1="380.697" y2="380.697"/><linearGradient id="SVGID_20_" gradientTransform="matrix(1 0 0 -1 0 512)" gradientUnits="userSpaceOnUse" x1="14.534" x2="146.576" xlink:href="#lg3" y1="380.698" y2="380.698"/><linearGradient id="SVGID_21_" gradientTransform="matrix(1 0 0 -1 0 512)" gradientUnits="userSpaceOnUse" x1="14.534" x2="146.576" xlink:href="#lg3" y1="382.224" y2="382.224"/><linearGradient id="SVGID_22_" gradientTransform="matrix(1 0 0 -1 0 512)" gradientUnits="userSpaceOnUse" x1="14.534" x2="146.576" xlink:href="#lg3" y1="411.724" y2="411.724"/><g><path d="m509.926 39.06c.009-.089.019-.178.028-.268.754-7.245-8.031-11.426-13.193-6.275l-15.403 15.368c-1.468 1.464-3.392 2.197-5.316 2.197-1.865 0-3.729-.687-5.178-2.063-3.072-2.916-2.909-7.975.09-10.967l25.044-24.988c4.363-4.354 1.447-11.943-4.723-12.053-.047-.001-.094-.002-.142-.002-36.268-.401-71.167 13.797-96.814 39.386l-105.606 105.37c-2.405 2.4-4.87 4.727-7.389 6.981-8.117 7.259-19.252-4.586-11.544-12.276l23.099-23.048c2.911-2.904 3.206-7.674.384-10.664-2.92-3.093-7.8-3.148-10.792-.165l-88.656 88.458c-1.205 1.203-2.747 2.023-4.426 2.318-.089.016-.178.031-.267.047-8.083 1.408-13.216-8.341-7.414-14.13l37.196-37.113c2.911-2.904 3.206-7.674.384-10.664-2.92-3.093-7.8-3.148-10.792-.165l-48.601 48.493c-9.935 9.913-22.523 16.784-36.27 19.686-72.306 15.267-126.263 80.957-123.525 157.684 2.862 80.215 67.242 145.49 147.582 149.588 72.494 3.698 135.578-42.94 156.489-108.141 3.622-11.295 9.723-21.642 18.127-30.027l42.548-42.453c2.911-2.904 3.206-7.674.384-10.664-2.92-3.093-7.8-3.148-10.792-.165l-23.277 23.225c-7.125 7.109-19.286 1.508-18.459-8.512.01-.116.019-.232.029-.347.215-2.536 1.329-4.908 3.133-6.708l146.46-146.132c2.911-2.904 3.206-7.674.384-10.664-2.92-3.093-7.8-3.148-10.792-.165l-102.737 102.505c-6.976 6.96-18.166-1.609-13.284-10.163 8.169-14.315 18.279-27.603 30.158-39.455l105.606-105.37c1.977-1.973 3.886-4.001 5.726-6.08 4.648-5.253-2.92-12.383-7.886-7.428-1.468 1.464-3.392 2.197-5.316 2.197-1.865 0-3.729-.687-5.178-2.063-3.072-2.916-2.909-7.975.09-10.967l48.602-48.493c1.258-1.255 2.04-2.9 2.229-4.665z" fill="url(#SVGID_1_)"/><g><path d="m509.994 284.465c-.076-6.849-5.61-12.383-12.459-12.459-22.596-.251-44.339 8.615-60.317 24.593-14.295 14.295-34.45 20.759-54.498 18.164-5.165-.669-10.456-.935-15.841-.766-52.89 1.66-95.201 45.677-94.876 98.593.33 53.649 43.757 97.076 97.405 97.408 52.916.327 96.935-41.983 98.596-94.873.169-5.387-.097-10.679-.766-15.845-2.595-20.048 3.869-40.203 18.164-54.497 15.977-15.979 24.843-37.722 24.592-60.318z" fill="url(#SVGID_2_)"/><g><path d="m376.818 314.199c-3.273-.224-6.586-.307-9.94-.202-3.405.107-6.766.392-10.075.841 6.745.798 13.489.564 20.015-.639z" fill="url(#SVGID_3_)"/><path d="m497.535 272.006c-6.706-.074-13.332.673-19.759 2.152 3.315 2.24 5.508 6.014 5.556 10.307.251 22.596-8.615 44.339-24.593 60.317-14.295 14.295-20.759 34.449-18.164 54.497.669 5.166.935 10.459.766 15.845-1.513 48.183-38.182 87.58-84.704 93.964 4.179.571 8.441.883 12.771.909 52.916.327 96.935-41.983 98.596-94.873.169-5.387-.097-10.679-.766-15.845-2.595-20.048 3.869-40.203 18.164-54.497 15.978-15.978 24.844-37.722 24.593-60.317-.077-6.849-5.611-12.383-12.46-12.459z" fill="url(#SVGID_4_)"/></g><g><circle cx="370.026" cy="411.974" fill="url(#SVGID_5_)" r="74.327"/><g><path d="m370.026 337.646c-4.554 0-9.004.432-13.331 1.216 34.684 6.285 60.996 36.615 60.996 73.112 0 11.886-2.805 23.109-7.767 33.07-2.515-11.322-12.936-19.667-25.176-18.927-11.894.719-21.682 10.274-22.661 22.149-.514 6.239 1.335 12.033 4.749 16.588 5.421 7.231 1.617 17.668-7.203 19.638-.973.217-1.953.416-2.939.594 4.327.784 8.778 1.216 13.331 1.216 41.05 0 74.327-33.277 74.327-74.327s-33.276-74.329-74.326-74.329z" fill="url(#SVGID_6_)"/><circle cx="332.443" cy="410.346" fill="url(#SVGID_7_)" r="15.724"/><circle cx="380.333" cy="378.898" fill="url(#SVGID_8_)" r="15.724"/></g></g></g><g><circle cx="130.401" cy="379.599" fill="url(#SVGID_9_)" r="119.951"/><path d="m496.761 32.517-15.402 15.368c-1.468 1.464-3.392 2.197-5.316 2.197-1.865 0-3.729-.688-5.178-2.063-3.072-2.915-2.908-7.975.09-10.966l25.044-24.988c4.364-4.354 1.447-11.943-4.722-12.053-.047-.001-.094-.001-.142-.002-14.895-.165-29.558 2.138-43.446 6.676.106 1.882-.511 3.834-2.06 5.38l-25.044 24.988c-2.998 2.991-3.161 8.051-.09 10.966 1.449 1.376 3.313 2.063 5.178 2.063 1.923 0 3.848-.732 5.316-2.197l15.402-15.368c5.165-5.154 13.952-.968 13.192 6.29-.009.09-.019.18-.028.268-.187 1.76-.975 3.4-2.228 4.65l-48.602 48.493c-2.999 2.992-3.162 8.052-.089 10.968 1.449 1.375 3.313 2.062 5.177 2.062 1.923 0 3.847-.732 5.315-2.197h2.228c6.768 0 8.666 4.175 4.094 9.165-1.352 1.475-2.739 2.923-4.162 4.342l-130.186 129.965c-4.491 4.483-4.63 11.716-.316 16.369 2.83 3.053 3.707 7.088-.025 13.601-5.551 9.688-4.1 21.881 3.237 30.297l.567.651c4.178 4.792 9.98 7.655 16.227 8.836 1.502.284 2.934 1.027 4.069 2.23 1.744 1.848 2.294 4.376 1.775 6.723l145.688-145.362c2.911-2.904 3.206-7.674.384-10.664-2.92-3.093-7.8-3.148-10.792-.165l-102.737 102.507c-6.979 6.964-18.155-1.631-13.266-10.194 8.166-14.303 18.27-27.581 30.14-39.424l105.606-105.37c1.423-1.419 2.81-2.867 4.162-4.342 4.573-4.99 2.674-9.165-4.094-9.165h-2.228c-1.468 1.464-3.392 2.197-5.315 2.197-1.864 0-3.728-.687-5.177-2.062-3.073-2.915-2.91-7.976.089-10.968l48.602-48.493c1.253-1.25 2.041-2.89 2.228-4.65.01-.089.019-.178.028-.268.759-7.258-8.027-11.445-13.193-6.291z" fill="url(#SVGID_10_)"/><path d="m354.439 318.343-23.277 23.225c-7.125 7.109-19.286 1.508-18.459-8.512.01-.116.019-.232.029-.347.065-.766.221-1.514.445-2.239l-41.543 38.701c-8.404 8.386-14.21 21.187-17.832 32.482-17.638 54.998-65.284 96.788-123.274 106.301 5.624.918 11.346 1.544 17.155 1.841 72.494 3.698 135.578-42.94 156.489-108.141 3.622-11.295 9.723-21.642 18.127-30.027l42.548-42.453c2.911-2.904 3.206-7.674.384-10.664-2.92-3.095-7.801-3.15-10.792-.167z" fill="url(#SVGID_11_)"/></g><g><circle cx="155.412" cy="354.588" fill="url(#SVGID_12_)" r="119.951"/><g><path d="m155.412 234.637c-7.349 0-14.531.696-21.515 1.962 55.975 10.143 98.437 59.091 98.437 117.99 0 19.182-4.527 37.294-12.535 53.369-4.058-18.271-20.877-31.74-40.629-30.546-19.195 1.16-34.991 16.58-36.571 35.745-.83 10.068 2.154 19.42 7.664 26.77 8.748 11.669 2.609 28.513-11.624 31.693-1.57.351-3.151.671-4.743.959 6.984 1.266 14.166 1.962 21.515 1.962 66.247 0 119.951-53.704 119.951-119.951s-53.703-119.953-119.95-119.953z" fill="url(#SVGID_13_)"/><circle cx="94.759" cy="351.961" fill="url(#SVGID_14_)" r="25.376"/><circle cx="172.045" cy="301.21" fill="url(#SVGID_15_)" r="25.376"/></g></g><g><path d="m223.252 11.692c-.071-6.425-5.262-11.616-11.687-11.687-21.196-.235-41.592 8.081-56.581 23.07-13.409 13.409-32.316 19.473-51.123 17.039-4.845-.627-9.808-.877-14.86-.718-49.614 1.556-89.305 42.847-88.999 92.485.31 50.325 41.046 91.063 91.371 91.374 49.638.307 90.931-39.382 92.489-88.997.159-5.053-.091-10.017-.719-14.864-2.435-18.806 3.629-37.712 17.039-51.121 14.989-14.988 23.305-35.385 23.07-56.581z" fill="url(#SVGID_16_)"/><g><path d="m98.325 39.585c-3.071-.211-6.178-.288-9.324-.19-3.194.1-6.347.368-9.451.789 6.328.749 12.653.529 18.775-.599z" fill="url(#SVGID_17_)"/><path d="m211.565.005c-6.291-.07-12.506.631-18.535 2.019 3.11 2.101 5.167 5.642 5.211 9.668.235 21.196-8.081 41.592-23.07 56.581-13.409 13.409-19.473 32.315-17.039 51.121.627 4.846.877 9.811.719 14.864-1.419 45.199-35.817 82.155-79.458 88.143 3.92.536 7.918.828 11.98.853 49.638.307 90.931-39.382 92.489-88.997.159-5.053-.091-10.018-.719-14.864-2.435-18.806 3.63-37.712 17.039-51.121 14.989-14.989 23.305-35.385 23.07-56.581-.071-6.424-5.262-11.615-11.687-11.686z" fill="url(#SVGID_18_)"/></g><g><circle cx="91.954" cy="131.303" fill="url(#SVGID_19_)" r="69.723"/><g><path d="m91.954 61.579c-4.271 0-8.446.405-12.506 1.14 32.536 5.896 57.218 34.347 57.218 68.583 0 11.15-2.632 21.678-7.286 31.021-2.359-10.62-12.135-18.449-23.616-17.755-11.157.674-20.339 9.637-21.257 20.777-.482 5.852 1.252 11.288 4.455 15.56 5.085 6.783 1.517 16.574-6.756 18.422-.912.204-1.832.39-2.757.558 4.059.736 8.234 1.14 12.506 1.14 38.507 0 69.723-31.216 69.723-69.723s-31.217-69.723-69.724-69.723z" fill="url(#SVGID_20_)"/><circle cx="56.699" cy="129.776" fill="url(#SVGID_21_)" r="14.75"/><circle cx="101.622" cy="100.276" fill="url(#SVGID_22_)" r="14.75"/></g></g></g></g></svg>