<svg id="Layer_1" height="512" viewBox="0 0 512 512" width="512" xmlns="http://www.w3.org/2000/svg" data-name="Layer 1"><path d="m170.78 438.8a16.032 16.032 0 0 1 32.05.68v3.7a19.735 19.735 0 0 0 39.47 0v-138.25h32.56v138.25a19.735 19.735 0 0 0 39.47 0v-13.08a16.525 16.525 0 0 1 32.81-2.8 24.671 24.671 0 0 1 42.67 16.63l.01.01a29.584 29.584 0 0 1 45.03 29.66 26.892 26.892 0 0 1 31.71 24.56l-420.39 2.84a29.606 29.606 0 0 1 40.8-33.61 19.968 19.968 0 0 1 28.84-6.95v-.01l-.31-6.89a29.607 29.607 0 0 1 55.28-14.74z" fill="#ed6337"/><path d="m362.18 324.66h23.68v20.83h-23.68z" fill="#50a6ea"/><path d="m307.91 304.93v16.88 2.85h77.95v-2.85-16.88z" fill="#5f6a78"/><path d="m371.56 233.39a48.693 48.693 0 0 0 -34.54-14.31 29.1 29.1 0 0 1 -29.11-29.1v114.95h77.95v-37a48.685 48.685 0 0 0 -14.3-34.54z" fill="#50a6ea"/><path d="m307.91 324.66h23.68v20.83h-23.68z" fill="#50a6ea"/><path d="m307.91 295.17v9.76h-33.05v-31.47-.11h33.05z" fill="#7f8a98"/><path d="m303.36 73.79c-3.03-11.27-7.56-22.29-13.56-40.29a32.91 32.91 0 0 0 -62.44 0c-12 36-18.12 44.1-18.12 82.04v157.81h98.67v-157.81c0-18.97-1.53-30.48-4.55-41.75z" fill="#e5f5fd"/><path d="m274.86 273.46v31.47h-32.56v-31.47-.11h32.56z" fill="#6f6c82"/><path d="m242.3 273.46v31.47h-33.06v-9.76-21.82h33.06z" fill="#7f8a98"/><path d="m185.56 324.66h23.68v20.83h-23.68z" fill="#50a6ea"/><path d="m131.29 304.93v16.88 2.85h77.95v-2.85-16.88z" fill="#5f6a78"/><path d="m180.13 219.08a48.857 48.857 0 0 0 -48.84 48.85v37h77.95v-114.95a29.1 29.1 0 0 1 -29.11 29.1z" fill="#50a6ea"/><path d="m131.29 324.66h23.68v20.83h-23.68z" fill="#50a6ea"/><path d="m257.36 33.5a32.084 32.084 0 0 1 16.22-18.984 33.634 33.634 0 0 0 -15-3.516 32.319 32.319 0 0 0 -31.22 22.5c-12 36-18.12 44.1-18.12 82.04v157.81h30v-157.81c0-37.94 6.12-46.04 18.12-82.04z" fill="#a6b7d0"/><path d="m289.794 98.705a6 6 0 0 1 -5.69-4.1c-4.522-13.565-16.151-18.4-25.526-18.4s-21 4.834-25.527 18.4a6 6 0 0 1 -11.384-3.8 38.906 38.906 0 0 1 73.82 0 6 6 0 0 1 -5.693 7.9z" fill="#8ca1ba"/><path d="m296.566 423.562a5.968 5.968 0 0 1 -6-5.963v-.075a6 6 0 1 1 6 6.038z" fill="#ccd3df"/><path d="m296.566 406.554a6 6 0 0 1 -6-6v-39.927a6 6 0 0 1 12 0v39.927a6 6 0 0 1 -6 6z" fill="#ccd3df"/><path d="m220.589 423.524a6 6 0 0 1 -6-6v-39.393a6 6 0 0 1 12 0v39.393a6 6 0 0 1 -6 6z" fill="#ccd3df"/><path d="m220.589 367.085a6 6 0 0 1 -6-6v-.458a6 6 0 0 1 12 0v.458a6 6 0 0 1 -6 6z" fill="#ccd3df"/><g fill="#d6512d"><path d="m342.881 439.516a6 6 0 0 1 -5.4-8.6 30.659 30.659 0 0 1 5.291-7.728 6 6 0 0 1 8.753 8.209 18.678 18.678 0 0 0 -3.224 4.707 6 6 0 0 1 -5.42 3.412z"/><path d="m173.226 450.27a6 6 0 0 1 -5.7-4.124 23.559 23.559 0 0 0 -22.422-16.208 6 6 0 0 1 0-12 35.537 35.537 0 0 1 33.819 24.453 6 6 0 0 1 -5.7 7.879z"/><path d="m385.224 453.5a6 6 0 0 1 -4.131-10.352 35.741 35.741 0 0 1 30.883-9.219 6 6 0 1 1 -2.143 11.807 23.711 23.711 0 0 0 -20.48 6.117 5.979 5.979 0 0 1 -4.129 1.647z"/><path d="m124.014 478.525a6 6 0 0 1 -5.848-4.681 13.976 13.976 0 0 0 -16.709-10.559 6 6 0 0 1 -2.64-11.706 25.975 25.975 0 0 1 31.055 19.621 6 6 0 0 1 -5.858 7.321z"/><path d="m94.894 478.521a5.98 5.98 0 0 1 -4.017-1.544 23.655 23.655 0 0 0 -21.02-5.513 6 6 0 0 1 -2.64-11.706 35.674 35.674 0 0 1 31.7 8.307 6 6 0 0 1 -4.02 10.456z"/><path d="m418.456 489.709a6 6 0 0 1 -4.766-9.639 32.837 32.837 0 0 1 23.888-12.849 6 6 0 0 1 .81 11.973 20.837 20.837 0 0 0 -15.158 8.154 5.989 5.989 0 0 1 -4.774 2.361z"/></g></svg>