<svg id="Layer_1" height="512" viewBox="0 0 512 512" width="512" xmlns="http://www.w3.org/2000/svg" data-name="Layer 1"><path d="m259.01 11.23h-6.38a100.744 100.744 0 0 0 -100.82 100.81v143.47a100.822 100.822 0 0 0 100.82 100.82h6.38a100.822 100.822 0 0 0 100.82-100.82v-143.47a100.813 100.813 0 0 0 -100.82-100.81z" fill="#6d6d93"/><path d="m181.81 255.51v-143.47a100.837 100.837 0 0 1 79.34-98.51q4.757-1.038 9.674-1.607a101.721 101.721 0 0 0 -11.814-.693h-6.38a100.744 100.744 0 0 0 -100.82 100.81v143.47a100.822 100.822 0 0 0 100.82 100.82h6.38a101.874 101.874 0 0 0 11.81-.692 100.834 100.834 0 0 1 -89.01-100.128z" fill="#53537a"/><path d="m101.868 206.593h306.79v12h-306.79z" fill="#9be147"/><path d="m408.84 181.068a6 6 0 0 0 -6 6v62.358c0 78.121-63.556 141.677-141.677 141.677h-10.326c-78.121 0-141.677-63.557-141.677-141.678v-62.357a6 6 0 0 0 -12 0v62.357c0 84.242 68.138 152.859 152.194 153.659v98.142h12v-98.126c84.646-.1 153.486-69 153.486-153.674v-62.358a6 6 0 0 0 -6-6z" fill="#d4e1f4"/><path d="m302.416 506.774h-94.124a6 6 0 0 1 0-12h94.124a6 6 0 1 1 0 12z" fill="#b0b5ca"/><g fill="#424266"><path d="m254.172 71.914a6 6 0 0 0 6-6v-54.669c-.388 0-.774-.015-1.162-.015h-6.38c-1.5 0-2.979.041-4.458.105v54.579a6 6 0 0 0 6 6z"/><path d="m231.154 71.914a6 6 0 0 0 6-6v-52.469a5.932 5.932 0 0 0 -.092-1.012q-2.985.465-5.912 1.1c-2.025.439-4.018.961-6 1.519v50.862a6 6 0 0 0 6.004 6z"/><path d="m271.19 65.914a6 6 0 0 0 12 0v-51.758a100.359 100.359 0 0 0 -11.813-2.17 5.952 5.952 0 0 0 -.187 1.459z"/><path d="m294.209 65.914a6 6 0 0 0 12 0v-42.97a100.232 100.232 0 0 0 -11.015-5.02 5.969 5.969 0 0 0 -.985 3.29z"/><path d="m208.136 71.914a6 6 0 0 0 6-6v-43.59a5.962 5.962 0 0 0 -.866-3.093 100.4 100.4 0 0 0 -11.134 5.561v41.122a6 6 0 0 0 6 6z"/><path d="m260.172 299.765a6 6 0 0 0 -12 0v54.687a5.98 5.98 0 0 0 .27 1.785c1.389.057 2.784.093 4.188.093h6.38c.288 0 .574-.009.862-.011a6 6 0 0 0 .3-1.867z"/><path d="m283.19 299.765a6 6 0 0 0 -12 0v52.467a5.967 5.967 0 0 0 .959 3.246 100.51 100.51 0 0 0 10.921-2.045 6.01 6.01 0 0 0 .12-1.2z"/><path d="m237.154 299.765a6 6 0 0 0 -12 0v52.467c0 .1.011.208.016.311a100.154 100.154 0 0 0 11.289 2.49 5.979 5.979 0 0 0 .695-2.8z"/><path d="m214.136 299.765a6 6 0 0 0 -12 0v43.023a100.459 100.459 0 0 0 10.711 5.383 5.967 5.967 0 0 0 1.289-3.707z"/><path d="m306.209 299.765a6 6 0 0 0 -12 0v43.589a6 6 0 0 0 3.3 5.355q4.379-1.81 8.54-4.013a6 6 0 0 0 .156-1.342z"/></g></svg>