<svg id="_x31_" enable-background="new 0 0 24 24" height="512" viewBox="0 0 24 24" width="512" xmlns="http://www.w3.org/2000/svg"><g><path d="m12 24c-.276 0-.5-.224-.5-.5v-23c0-.276.224-.5.5-.5s.5.224.5.5v23c0 .276-.224.5-.5.5z"/></g><g><path d="m3.868 20.632c-.128 0-.256-.049-.354-.146-.195-.195-.195-.512 0-.707l16.264-16.264c.195-.195.512-.195.707 0s.195.512 0 .707l-16.263 16.263c-.098.098-.226.147-.354.147z"/></g><g><path d="m23.5 12.5h-23c-.276 0-.5-.224-.5-.5s.224-.5.5-.5h23c.276 0 .5.224.5.5s-.224.5-.5.5z"/></g><g><path d="m20.132 20.632c-.128 0-.256-.049-.354-.146l-16.263-16.264c-.195-.195-.195-.512 0-.707s.512-.195.707 0l16.264 16.264c.195.195.195.512 0 .707-.098.097-.226.146-.354.146z"/></g><g><path d="m16.56 7.94c-.001 0-.002 0-.003 0-1.846-.01-3.589-.736-4.909-2.045-.195-.194-.197-.511-.003-.707.196-.196.512-.198.708-.003 1.132 1.123 2.627 1.746 4.21 1.755.276.001.499.227.497.503-.002.275-.225.497-.5.497z"/></g><g><path d="m19.812 4.753c-.001 0-.002 0-.003 0-3.068-.018-5.965-1.225-8.157-3.398-.195-.194-.197-.511-.003-.707.196-.196.512-.198.708-.003 2.005 1.988 4.653 3.092 7.458 3.108.276.001.499.227.497.503-.002.275-.226.497-.5.497z"/></g><g><path d="m23.001 12.546c-.129 0-.258-.049-.355-.148-2.156-2.182-3.352-5.083-3.364-8.171-.001-.276.222-.501.498-.502h.002c.275 0 .499.223.5.498.012 2.824 1.104 5.478 3.075 7.472.194.196.192.513-.004.707-.098.096-.225.144-.352.144z"/></g><g><path d="m19.747 20.312c-.001 0-.002 0-.003 0-.276-.001-.499-.227-.497-.503.017-3.067 1.224-5.963 3.397-8.157.196-.196.513-.198.707-.003.196.194.198.511.004.707-1.989 2.006-3.093 4.655-3.108 7.458-.002.275-.225.498-.5.498z"/></g><g><path d="m11.954 23.501c-.129 0-.258-.049-.355-.148-.194-.196-.192-.513.004-.707 2.181-2.157 5.082-3.352 8.171-3.365h.002c.275 0 .499.223.5.498.001.276-.222.501-.498.502-2.824.012-5.479 1.104-7.472 3.076-.098.096-.225.144-.352.144z"/></g><g><path d="m11.996 23.5c-.127 0-.255-.048-.353-.145-2.005-1.988-4.653-3.092-7.458-3.108-.276-.001-.499-.227-.497-.503.002-.275.226-.497.5-.497h.003c3.068.018 5.965 1.225 8.157 3.398.195.194.197.511.003.707-.098.099-.226.148-.355.148z"/></g><g><path d="m4.219 20.275c-.275 0-.499-.223-.5-.498-.012-2.824-1.104-5.478-3.075-7.472-.194-.196-.192-.513.004-.707.196-.195.513-.193.707.004 2.156 2.182 3.352 5.083 3.364 8.171.001.276-.222.501-.498.502-.001 0-.001 0-.002 0z"/></g><g><path d="m1 12.496c-.127 0-.255-.048-.352-.145-.196-.194-.198-.511-.004-.707 1.989-2.006 3.093-4.655 3.108-7.458.002-.275.225-.497.5-.497h.003c.277.001.5.226.498.502-.017 3.067-1.224 5.963-3.397 8.157-.099.099-.227.148-.356.148z"/></g><g><path d="m4.225 4.719c-.275 0-.499-.223-.5-.498-.001-.276.221-.501.498-.502 2.824-.012 5.479-1.104 7.472-3.076.197-.194.514-.193.707.004.194.196.192.513-.004.707-2.181 2.157-5.082 3.352-8.171 3.365-.001 0-.001 0-.002 0z"/></g><g><path d="m18.449 12.5c-.129 0-.258-.049-.355-.148-1.299-1.312-2.018-3.059-2.025-4.917-.001-.276.222-.501.498-.502h.002c.275 0 .499.223.5.498.007 1.595.623 3.093 1.736 4.218.194.196.192.513-.004.707-.098.096-.225.144-.352.144z"/></g><g><path d="m16.56 17.06c-.001 0-.002 0-.003 0-.276-.001-.499-.227-.497-.503.011-1.847.737-3.59 2.045-4.909.195-.196.511-.198.708-.003.195.194.197.511.003.707-1.123 1.132-1.746 2.627-1.756 4.211-.002.275-.226.497-.5.497z"/></g><g><path d="m12 18.949c-.129 0-.258-.049-.355-.148-.194-.196-.192-.513.004-.707 1.312-1.298 3.059-2.017 4.918-2.025h.002c.275 0 .499.222.5.498s-.222.501-.498.502c-1.595.007-3.094.624-4.219 1.736-.098.095-.225.144-.352.144z"/></g><g><path d="m12 18.96c-.127 0-.255-.048-.353-.145-1.132-1.123-2.627-1.746-4.21-1.755-.276-.001-.499-.227-.497-.503.002-.275.225-.497.5-.497h.003c1.846.01 3.589.736 4.909 2.045.195.194.197.511.003.707-.098.099-.226.148-.355.148z"/></g><g><path d="m7.432 17.068c-.275 0-.499-.223-.5-.498-.007-1.595-.623-3.093-1.736-4.218-.194-.196-.192-.513.004-.707.197-.194.514-.193.707.004 1.299 1.312 2.018 3.059 2.025 4.917.001.276-.222.501-.498.502-.001 0-.001 0-.002 0z"/></g><g><path d="m5.54 12.5c-.127 0-.255-.048-.353-.145-.195-.194-.197-.511-.003-.707 1.123-1.132 1.746-2.627 1.756-4.211.002-.275.226-.497.5-.497h.003c.277.001.499.227.497.503-.011 1.847-.737 3.59-2.045 4.909-.098.099-.226.148-.355.148z"/></g><g><path d="m7.432 7.932c-.275 0-.499-.222-.5-.498s.221-.5.498-.502c1.595-.007 3.094-.624 4.219-1.736.196-.194.513-.192.707.004s.192.513-.004.707c-1.312 1.298-3.059 2.017-4.918 2.025-.001 0-.001 0-.002 0z"/></g></svg>