<svg id="Layer_1" height="512" viewBox="0 0 512 512" width="512" xmlns="http://www.w3.org/2000/svg" data-name="Layer 1"><path d="m341.2 244.43.05-.24c32.65 6.07 95.98-13.98 126.15-26.65a166.657 166.657 0 0 0 25.99-21.94 245.52 245.52 0 0 1 7.31 72.75 230.091 230.091 0 0 1 -78.71 33.44l-.49-.29c-52 16-134.04-13.62-166-27l-.05.09a228.906 228.906 0 0 1 -35.2-25.81c-17-15.15-11.89-42.94 9.35-51.13l.07-.03a30.575 30.575 0 0 1 31.88 6.26c8.15 7.61 16.94 15 24.47 19.47 8.53 5.06 36.19 17.03 55.18 21.08z" fill="#6addc7"/><path d="m255.45 274.59.05-.09c31.96 13.38 114 43 166 27l.49.29a230.091 230.091 0 0 0 78.71-33.44 242.933 242.933 0 0 1 -13.41 68.47c-28.95 17.62-98.51 26.94-131.79 29.68l-.11-.19c-5.89-.12-42.2-3.73-58.13-5.21-29.93-4.63-51.29-10.85-55.31-12.48a29.39 29.39 0 0 0 -23.43 53.89c5.25 2.43 14.7 5.5 27.19 8.52l-.07.49c25.88 3.91 92.75 12.92 124.03 11.56l.05.39c16.73-2.08 60.99-8.11 76.5-13.09a243.347 243.347 0 0 1 -86.1 67.37s-66.98-13.81-103.62-22.25l-.5.29c-18.18-5.49-35.03-11.98-46.88-19.41a12.33 12.33 0 0 0 -6.59-1.86 14.888 14.888 0 0 0 -10.39 4.4 14.439 14.439 0 0 0 3.74 23.12 387.425 387.425 0 0 0 105.58 34.66 244.995 244.995 0 0 1 -290.41-236.14l.73-.02s5.35 15.66 18.04 39.04a17.017 17.017 0 1 0 29.36-17.18c-21.4-34.3-38.42-94.93-38.42-94.93a245.057 245.057 0 0 1 24.61-56.53q1.47-2.49 3.01-4.92a154.21 154.21 0 0 0 1.73 26.35l.39.13c5.62 25.13 18.13 73.46 26.42 95.68a22.039 22.039 0 0 0 42.68-7.72 21.636 21.636 0 0 0 -2.39-9.91c-2.98-5.81-19.3-54.46-23.2-64.75v-.01c-.7-3.21-1.34-6.42-1.92-9.65q-2-11.175-3.04-22.51a264.208 264.208 0 0 1 1.05-57.92l-.01-.01a243.278 243.278 0 0 1 57.27-39.28 228.577 228.577 0 0 0 -3.7 40.05 31.3 31.3 0 0 0 62.59 1.29c.22-6.61 3.6-36 4.25-43.26l.02-.36a104.311 104.311 0 0 1 5.54-19.83 244.861 244.861 0 0 1 58.18-2.64 111.366 111.366 0 0 0 -4.59 28.56l-.15.27c1.05 8.19 4.02 33.69 6.82 41.45a25.169 25.169 0 0 0 48.01-14.97c-4.67-18.85.94-37.78 4.94-44.51l.08-.24a246.807 246.807 0 0 1 96.78 57.46l-.17.18c-5.08 8.55-30.42 21.97-38.46 26.63v.01a56.247 56.247 0 0 1 -18.45.24 23.4 23.4 0 0 0 -25.24 13.73l-.66 1.52a23.279 23.279 0 0 0 16.96 32 111.82 111.82 0 0 0 20.8 2.14c.25-.5.53-1 .82-1.49a28.1 28.1 0 0 1 38.52-9.82 27.078 27.078 0 0 1 4.17 3.02 111.663 111.663 0 0 0 37.36-24.85 245.543 245.543 0 0 1 31.61 72.6 166.657 166.657 0 0 1 -25.99 21.94c-30.17 12.67-93.5 32.72-126.15 26.65l-.05.24c-18.99-4.05-46.65-16.02-55.18-21.08-7.53-4.47-16.32-11.86-24.47-19.47a30.575 30.575 0 0 0 -31.88-6.26l-.07.03c-21.24 8.19-26.35 35.98-9.35 51.13a228.906 228.906 0 0 0 35.2 25.81zm-111.12 146.13a16.874 16.874 0 0 0 -.97-24.79c-9.21-7.83-17.74-15.85-25.63-23.9-3.21-3.27-22.23-25.25-25.23-28.53l-.09.08a16.854 16.854 0 0 0 -26.18 21.23c6.16 7.76 12.89 15.67 20.23 23.58l.04.11c4.63 4.29 30.01 29.03 35.03 33.23a16.9 16.9 0 0 0 22.8-1.01z" fill="#a267f4"/><path d="m297.26 361.1c15.93 1.48 52.24 5.09 58.13 5.21l.11.19c33.28-2.74 102.84-12.06 131.79-29.68a247.241 247.241 0 0 1 -41.07 73.56c-15.51 4.98-59.77 11.01-76.5 13.09l-.05-.39c-31.28 1.36-98.15-7.65-124.03-11.56l.07-.49c-12.49-3.02-21.94-6.09-27.19-8.52a29.39 29.39 0 0 1 23.43-53.89c4.02 1.63 25.38 7.85 55.31 12.48z" fill="#6addc7"/><path d="m387.5 106.51v-.01c8.04-4.66 33.38-18.08 38.46-26.63l.17-.18a242.528 242.528 0 0 1 35.65 43.31 111.663 111.663 0 0 1 -37.36 24.85 27.078 27.078 0 0 0 -4.17-3.02 28.1 28.1 0 0 0 -38.52 9.82c-.29.49-.57.99-.82 1.49a111.82 111.82 0 0 1 -20.8-2.14 23.279 23.279 0 0 1 -16.96-32l.66-1.52a23.4 23.4 0 0 1 25.24-13.73 56.247 56.247 0 0 0 18.45-.24z" fill="#6addc7"/><path d="m329.35 22.23-.08.24c-4 6.73-9.61 25.66-4.94 44.51a25.169 25.169 0 0 1 -48.01 14.97c-2.8-7.76-5.77-33.26-6.82-41.45l.15-.27a111.366 111.366 0 0 1 4.59-28.56 242.425 242.425 0 0 1 55.11 10.56z" fill="#6addc7"/><path d="m256.5 455.5c36.64 8.44 103.62 22.25 103.62 22.25a245.333 245.333 0 0 1 -58.66 18.95 387.425 387.425 0 0 1 -105.58-34.66 14.439 14.439 0 0 1 -3.74-23.12 14.888 14.888 0 0 1 10.39-4.4 12.33 12.33 0 0 1 6.59 1.86c11.85 7.43 28.7 13.92 46.88 19.41z" fill="#6addc7"/><path d="m216.06 14.31a104.311 104.311 0 0 0 -5.54 19.83l-.02.36c-.65 7.26-4.03 36.65-4.25 43.26a31.305 31.305 0 0 1 -62.59-1.29 228.577 228.577 0 0 1 3.7-40.05 246.06 246.06 0 0 1 68.7-22.11z" fill="#6addc7"/><path d="m92.41 343.58.09-.08c3 3.28 22.02 25.26 25.23 28.53 7.89 8.05 16.42 16.07 25.63 23.9a16.9 16.9 0 0 1 -21.83 25.8c-5.02-4.2-30.4-28.94-35.03-33.23l-.04-.11c-7.34-7.91-14.07-15.82-20.23-23.58a16.854 16.854 0 0 1 26.18-21.23z" fill="#6addc7"/><path d="m94.01 165.79v.01c3.9 10.29 20.22 58.94 23.2 64.75a21.636 21.636 0 0 1 2.39 9.91 22.039 22.039 0 0 1 -42.68 7.72c-8.29-22.22-20.8-70.55-26.42-95.68l-.39-.13a154.21 154.21 0 0 1 -1.73-26.35 243.787 243.787 0 0 1 41.71-50.32l.01.01a264.208 264.208 0 0 0 -1.05 57.92q1.035 11.325 3.04 22.51c.58 3.23 1.22 6.44 1.92 9.65z" fill="#6addc7"/><path d="m61.78 291.46a17.015 17.015 0 0 1 -31.96 8.12c-12.69-23.38-18.04-39.04-18.04-39.04l-.73.02a243.633 243.633 0 0 1 9.71-73.09s17.02 60.63 38.42 94.93a17.122 17.122 0 0 1 2.6 9.06z" fill="#6addc7"/><circle cx="188" cy="154" fill="#eee051" r="33"/><circle cx="146" cy="313" fill="#eee051" r="24"/><circle cx="407" cy="171" fill="#eee051" r="28"/><path d="m126.09 80.7q8.613-7.936 17.869-14.935a229.266 229.266 0 0 1 3.4-29.345 243.278 243.278 0 0 0 -57.269 39.28l.01.01a263.962 263.962 0 0 0 -1.694 49.1 243.451 243.451 0 0 1 37.684-44.11z" fill="#d79fff"/><path d="m58.69 186.2c-3.274-12.7-6.176-24.691-8.19-33.7l-.39-.13a154.21 154.21 0 0 1 -1.73-26.35q-1.545 2.43-3.01 4.92a245.057 245.057 0 0 0 -24.61 56.53s10.917 38.883 26.256 71.988a243.552 243.552 0 0 1 9.744-66.988q.918-3.142 1.93-6.27z" fill="#d79fff"/><path d="m51.419 307.113a16.981 16.981 0 0 1 -21.6-7.533c-12.69-23.38-18.04-39.04-18.04-39.04l-.73.02a245.107 245.107 0 0 0 229.136 239.924 245.3 245.3 0 0 1 -188.766-193.371z" fill="#d79fff"/><path d="m272.865 16.777c.421-1.707.87-3.411 1.375-5.107a244.861 244.861 0 0 0 -58.18 2.64 94.138 94.138 0 0 0 -4.614 15.355 246.583 246.583 0 0 1 40.614-10.355q10.332-1.71 20.805-2.533z" fill="#d79fff"/><path d="m50.5 152.5c2.014 9.008 4.916 21 8.19 33.7a245.26 245.26 0 0 1 22.68-50.26q1.47-2.49 3.01-4.92c1.312-2.1 2.661-4.162 4.026-6.208a263.962 263.962 0 0 1 1.694-49.102l-.01-.01a243.787 243.787 0 0 0 -41.71 50.32 154.21 154.21 0 0 0 1.73 26.35z" fill="#85ffe8"/><path d="m143.959 65.765a244.627 244.627 0 0 1 67.487-36.1 94.138 94.138 0 0 1 4.614-15.355 246.06 246.06 0 0 0 -68.7 22.11 229.266 229.266 0 0 0 -3.4 29.345z" fill="#85ffe8"/><path d="m51.419 307.113a245.777 245.777 0 0 1 -4.369-41.553c-.04-2.032-.045-4.067-.034-6.1-15.339-33.107-26.256-71.99-26.256-71.99a243.633 243.633 0 0 0 -9.71 73.09l.73-.02s5.35 15.66 18.04 39.04a16.981 16.981 0 0 0 21.6 7.533z" fill="#85ffe8"/><g fill="#814ed1"><path d="m380.932 162.143h-.055a118.209 118.209 0 0 1 -21.941-2.259 29.28 29.28 0 0 1 -21.3-40.255l.653-1.519a29.476 29.476 0 0 1 31.667-17.294 50.067 50.067 0 0 0 16.529-.218 6 6 0 1 1 2.127 11.81 62.058 62.058 0 0 1 -20.48.268 17.475 17.475 0 0 0 -18.817 10.172l-.653 1.52a17.1 17.1 0 0 0 .575 14.78 17.354 17.354 0 0 0 12.038 8.966 106.151 106.151 0 0 0 19.708 2.03 6 6 0 0 1 -.054 12z"/><path d="m379.682 185.135a6 6 0 0 1 -5.6-3.843 34.11 34.11 0 1 1 64.871-20.719 6 6 0 0 1 -11.628 2.964 22.111 22.111 0 1 0 -42.048 13.437 6 6 0 0 1 -5.6 8.161z"/><path d="m405.908 203.12a34.061 34.061 0 0 1 -17.42-4.791 6 6 0 1 1 6.126-10.319 22.084 22.084 0 0 0 27.957-4.479 6 6 0 1 1 9.057 7.872 34.026 34.026 0 0 1 -25.72 11.717z"/><path d="m372.088 253.036a174.562 174.562 0 0 1 -31.934-2.95 6 6 0 1 1 2.194-11.8 162.49 162.49 0 0 0 92.942-10.054 6 6 0 1 1 4.651 11.063 174.889 174.889 0 0 1 -67.853 13.741z"/><path d="m255.971 280.914a5.977 5.977 0 0 1 -3.057-.842 237.318 237.318 0 0 1 -36.658-26.809 36.464 36.464 0 0 1 11.182-61.214 36.836 36.836 0 0 1 38.21 7.451c9.33 8.714 17.214 15 23.432 18.7a164.241 164.241 0 0 0 25.489 12.3 6 6 0 1 1 -4.258 11.219 176.225 176.225 0 0 1 -27.357-13.2c-6.959-4.131-15.537-10.943-25.5-20.244a24.507 24.507 0 1 0 -33.214 36.025 225.237 225.237 0 0 0 34.8 25.449 6 6 0 0 1 -3.069 11.161z"/><path d="m372.662 313.1a232.254 232.254 0 0 1 -90.222-18.164 6 6 0 0 1 4.634-11.07 220.59 220.59 0 0 0 96.237 16.984 6 6 0 0 1 .561 11.987q-5.621.263-11.21.263z"/><path d="m171.948 188.012a5.978 5.978 0 0 1 -3.058-.842 38.8 38.8 0 0 1 -13.555-53.17 6 6 0 0 1 10.318 6.126 26.8 26.8 0 0 0 9.363 36.728 6 6 0 0 1 -3.068 11.16z"/><path d="m209.556 185.136a6 6 0 0 1 -3.817-10.632 26.81 26.81 0 0 0 -3.358-43.743 6 6 0 0 1 6.126-10.318 38.823 38.823 0 0 1 4.858 63.326 5.976 5.976 0 0 1 -3.809 1.367z"/><path d="m97.71 268.521a29.111 29.111 0 0 1 -4.225-.31 27.662 27.662 0 0 1 -22.185-17.93c-10.4-27.868-18.131-53.011-22.99-74.733a6 6 0 1 1 11.71-2.62c4.74 21.189 12.318 45.8 22.524 73.158a16.023 16.023 0 0 0 27.783 4.076 16 16 0 0 0 1.545-16.875c-3.19-6.215-6.176-12.637-8.876-19.088a6 6 0 0 1 11.069-4.633c2.581 6.165 5.435 12.3 8.483 18.242a28.063 28.063 0 0 1 -2.658 29.6 27.611 27.611 0 0 1 -22.18 11.113z"/><path d="m355.391 372.314h-.129c-6.879-.145-13.972-.476-21.08-.985a6 6 0 0 1 .858-11.97c6.907.5 13.8.817 20.475.958a6 6 0 0 1 -.124 12z"/><path d="m245.714 417.037a6.037 6.037 0 0 1 -1.42-.171c-12.27-2.976-22.32-6.143-28.3-8.918a35.395 35.395 0 0 1 -16.861-47.74 35.562 35.562 0 0 1 45.067-17.148c3.487 1.41 25.466 7.839 56.121 12.435a6 6 0 1 1 -1.78 11.867c-31.825-4.771-54.265-11.328-58.838-13.176a23.517 23.517 0 0 0 -29.803 11.323 23.4 23.4 0 0 0 11.146 31.554c5.21 2.418 14.715 5.385 26.077 8.141a6 6 0 0 1 -1.409 11.833z"/><path d="m352.257 429.449a485 485 0 0 1 -71.333-5.485 6 6 0 0 1 1.8-11.865 460.288 460.288 0 0 0 86.688 4.985 6 6 0 1 1 .52 11.988c-5.992.26-11.899.377-17.675.377z"/><path d="m124.044 317c-.187 0-.375-.009-.564-.026a6 6 0 0 1 -5.417-6.532 28.492 28.492 0 0 1 55.992-4.327 6 6 0 1 1 -11.635 2.937 16.492 16.492 0 0 0 -32.409 2.5 6 6 0 0 1 -5.967 5.448z"/><path d="m146.5 341.57a28.645 28.645 0 0 1 -22.07-10.383 6 6 0 0 1 9.265-7.626 16.572 16.572 0 0 0 16.78 5.517 6 6 0 0 1 2.938 11.634 28.2 28.2 0 0 1 -6.913.858z"/><path d="m86.465 394.39a5.981 5.981 0 0 1 -4.4-1.918c-7.1-7.644-14.009-15.7-20.543-23.934a22.861 22.861 0 0 1 35.72-28.538 6 6 0 0 1 -9.331 7.545 10.861 10.861 0 0 0 -16.985 13.54c6.342 8 13.049 15.809 19.935 23.226a6 6 0 0 1 -4.4 10.083z"/><path d="m132.38 431.717a22.836 22.836 0 0 1 -14.7-5.383c-4.971-4.162-9.914-8.52-14.692-12.95a6 6 0 1 1 8.16-8.8c4.63 4.294 9.42 8.516 14.237 12.549a10.911 10.911 0 0 0 17.9-8.822 10.709 10.709 0 0 0 -3.8-7.814c-8.96-7.618-17.717-15.782-26.029-24.267-3.184-3.249-6.363-6.608-9.449-9.982a6 6 0 0 1 8.856-8.1c2.993 3.273 6.076 6.531 9.164 9.682 8.058 8.226 16.547 16.14 25.231 23.522a22.945 22.945 0 0 1 -14.869 40.362z"/><path d="m269.466 46.223q.091 0 .183 0a6 6 0 0 0 5.994-5.821 105.8 105.8 0 0 1 4.349-27.028 6.075 6.075 0 0 0 .227-1.181c-1.993-.2-3.986-.379-5.979-.526-2.043-.152-4.086-.262-6.128-.362a117.81 117.81 0 0 0 -4.464 28.738 6 6 0 0 0 5.818 6.18z"/><path d="m318.509 68.42a19.355 19.355 0 0 1 -11.927 23 19.179 19.179 0 0 1 -24.618-11.5 107.22 107.22 0 0 1 -5.5-22.729 6 6 0 1 0 -11.9 1.53 119.216 119.216 0 0 0 6.113 25.276 31.116 31.116 0 0 0 40.023 18.689 31.333 31.333 0 0 0 19.455-37.153c-4.292-17.314 1.139-34.722 4.275-40.005a5.986 5.986 0 0 0 .606-1.422c-1.892-.646-3.786-1.279-5.687-1.876-1.943-.612-3.891-1.186-5.842-1.747-4.699 8.779-9.833 28.437-4.998 47.937z"/><path d="m420.8 76.805a50.239 50.239 0 0 1 -17.958 17.8 6 6 0 1 0 6.016 10.384 62.232 62.232 0 0 0 21.6-21.016c-1.423-1.44-2.857-2.873-4.321-4.281-1.436-1.384-2.9-2.745-4.375-4.1a5.944 5.944 0 0 0 -.962 1.213z"/><path d="m422.162 142.29 4.514 11.119a118.925 118.925 0 0 0 38.369-25.187c-1.068-1.752-2.151-3.5-3.265-5.222s-2.245-3.412-3.4-5.1a106.781 106.781 0 0 1 -36.218 24.39z"/><path d="m209.4 40.038a5.99 5.99 0 0 0 7.014-4.775 98.232 98.232 0 0 1 5.191-18.671 5.96 5.96 0 0 0 .38-3.175c-1.979.279-3.957.566-5.928.893-2.3.382-4.6.807-6.886 1.253a120.59 120.59 0 0 0 -4.547 17.461 6 6 0 0 0 4.776 7.014z"/><path d="m153.44 107.1a36.921 36.921 0 0 0 21.4 6.892 37.66 37.66 0 0 0 12.712-2.238 37.047 37.047 0 0 0 24.69-33.795c.242-7.294.657-14.268 1.233-20.727a6 6 0 0 0 -11.953-1.067c-.6 6.681-1.024 13.879-1.274 21.395a25.307 25.307 0 0 1 -50.6-1.068 222.918 222.918 0 0 1 3.611-39 5.966 5.966 0 0 0 -.49-3.655c-1.814.842-3.622 1.7-5.417 2.584q-3.36 1.657-6.67 3.426a235.171 235.171 0 0 0 -3.034 36.6 37.383 37.383 0 0 0 15.792 30.653z"/><path d="m463.665 212.833a6 6 0 1 0 6.745 9.924 173.936 173.936 0 0 0 24.616-20.281c-.516-2.3-1.054-4.593-1.636-6.876-.491-1.933-1.014-3.858-1.552-5.779a5.945 5.945 0 0 0 -2.755 1.6 161.821 161.821 0 0 1 -25.418 21.412z"/><path d="m500.914 262.364a5.974 5.974 0 0 0 -3.546 1 223.042 223.042 0 0 1 -76.66 32.561 6 6 0 1 0 2.561 11.724 235.009 235.009 0 0 0 76.937-31.813q.3-3.744.494-7.487c.1-1.995.164-3.99.214-5.985z"/><path d="m83.073 134.18c.706 7.68 1.753 15.425 3.114 23.021 1.178 6.574 2.618 13.19 4.28 19.663a6 6 0 0 0 11.623-2.985c-1.589-6.187-2.965-12.51-4.091-18.795-1.3-7.259-2.3-14.662-2.977-22a258.367 258.367 0 0 1 1.028-56.608 5.982 5.982 0 0 0 -1.493-4.776c-1.5 1.316-2.994 2.645-4.467 4-2.3 2.115-4.551 4.3-6.777 6.509a270.577 270.577 0 0 0 -.24 51.971z"/><path d="m50.1 158.37a6.152 6.152 0 0 0 .851-.06 6 6 0 0 0 5.1-6.785 148.3 148.3 0 0 1 -1.667-25.471 5.993 5.993 0 0 0 -2.661-5.185c-1.125 1.706-2.252 3.409-3.34 5.151q-1.545 2.43-3.01 4.92c-.986 1.659-1.942 3.328-2.884 5 .254 5.377.811 11.147 1.681 17.273a6 6 0 0 0 5.93 5.157z"/><path d="m484.537 331.475c-24.9 15.414-56.354 24.776-93.478 27.827a6 6 0 0 0 .485 11.98c.164 0 .331-.007.5-.02 35.737-2.937 66.6-11.545 91.927-25.579 1.162-2.943 2.281-5.895 3.321-8.863.7-2 1.366-4.007 2.013-6.017a5.971 5.971 0 0 0 -4.768.672z"/><path d="m444.408 404.654a259.9 259.9 0 0 1 -47.415 10.16 6 6 0 0 0 .731 11.955 6.084 6.084 0 0 0 .746-.046 281.968 281.968 0 0 0 40.631-7.978c2.422-2.731 4.806-5.507 7.119-8.365 1.262-1.557 2.5-3.14 3.729-4.734a6 6 0 0 0 -5.541-.992z"/><path d="m44.739 314.457c.261 0 .525 0 .789-.013a23.015 23.015 0 0 0 18.745-35.22c-20.692-33.167-37.57-92.781-37.738-93.379a5.988 5.988 0 0 0 -4.016-4.109c-.608 1.908-1.2 3.818-1.759 5.734q-1.617 5.542-2.953 11.125c5.736 18.617 19.57 60.189 36.285 86.98a11.025 11.025 0 0 1 .687 10.464 11.019 11.019 0 0 1 -19.687.673c-12.2-22.467-17.534-37.814-17.634-38.107a6 6 0 0 0 -6.443-4.012c-.01 1.99 0 3.98.035 5.967q.159 8.179.869 16.314c2.952 6.674 7.1 15.39 12.627 25.565a22.864 22.864 0 0 0 20.193 12.018z"/><path d="m360.92 471.808c-.325-.043-32.964-4.465-68.918-12.751a6 6 0 0 0 -2.695 11.693c24.776 5.71 48.018 9.614 60.5 11.547q5.2-2.154 10.313-4.547c1.81-.847 3.606-1.726 5.4-2.618a5.992 5.992 0 0 0 -4.6-3.324z"/><path d="m302.609 490.817a383.416 383.416 0 0 1 -104.051-34.139 8.439 8.439 0 0 1 -2.172-13.513c2.693-2.694 6.8-3.423 9.548-1.7 11.154 7 27.415 13.749 48.33 20.071a6 6 0 0 0 3.471-11.488c-19.892-6.011-35.175-12.32-45.424-18.748-7.489-4.7-17.754-3.278-24.41 3.377a20.439 20.439 0 0 0 5.291 32.732 391.593 391.593 0 0 0 90.893 31.93q8.738-1.013 17.375-2.641c1.993-.376 3.98-.784 5.962-1.21a6 6 0 0 0 -4.813-4.671z"/></g></svg>