<svg id="Layer_1" height="512" viewBox="0 0 512 512" width="512" xmlns="http://www.w3.org/2000/svg" data-name="Layer 1"><path d="m143.39 89.53-3.21 3.21a161.046 161.046 0 0 0 0 227.84c1.76 1.77 3.56 3.48 5.38 5.14l105.96 42.03a160.772 160.772 0 0 0 116.62-47.17l3.22-3.21z" fill="#e5f5fd"/><path d="m170.18 320.58a161.064 161.064 0 0 1 -11.18-215.454l-15.61-15.596-3.21 3.21a161.046 161.046 0 0 0 0 227.84c1.76 1.77 3.56 3.48 5.38 5.14h30c-1.82-1.66-3.62-3.37-5.38-5.14z" fill="#a6b7d0"/><path d="m239.67 298.12a45.358 45.358 0 0 0 -89.42 0l-24.02 141.22v.64h137.47v-.64z" fill="#475673"/><path d="m180.25 298.12a45.33 45.33 0 0 1 29.711-35.166 45.353 45.353 0 0 0 -59.711 35.166l-24.02 141.22v.64h30v-.64z" fill="#7f8a98"/><path d="m335.63 105.6a29.288 29.288 0 1 1 -29.31 29.29 29.294 29.294 0 0 1 29.31-29.29z" fill="#475673"/><path d="m322.74 161.2-.06.11-41.66 65.14-.32.32-48.46-48.44 75.55-34.05.07-.02a29.287 29.287 0 0 0 14.88 16.94z" fill="#a6b7d0"/><path d="m269.41 439.98a50.014 50.014 0 0 1 50.02 50.02h-60.89v-50.02" fill="#72bcef"/><path d="m192.51 439.98h66.03v50.02h-66.03z" fill="#50a6ea"/><path d="m131.39 439.98h61.12v50.02h-61.12z" fill="#72bcef"/><path d="m120.51 439.98a50.018 50.018 0 0 0 -50.02 50.02h60.9v-50.02z" fill="#50a6ea"/><path d="m194.96 285.95a17.055 17.055 0 1 1 -17.06 17.06 17.056 17.056 0 0 1 17.06-17.06z" fill="#ed6337"/><path d="m388.528 136.945a6 6 0 0 1 -5.557-8.259 29.514 29.514 0 0 0 1.7-16.5 28.54 28.54 0 0 0 -12.4-18.751 29.606 29.606 0 0 0 -15.681-4.91 6 6 0 0 1 .288-12 41.583 41.583 0 0 1 22.025 6.905 40.445 40.445 0 0 1 17.569 26.57 41.491 41.491 0 0 1 -2.383 23.2 6 6 0 0 1 -5.561 3.745z" fill="#50a6ea"/><path d="m416.27 148.981a6 6 0 0 1 -5.255-8.887 56.015 56.015 0 0 0 1.75-50.685 54.468 54.468 0 0 0 -19.191-22.128 56.062 56.062 0 0 0 -28.5-9.255 6 6 0 0 1 .532-11.988 68.066 68.066 0 0 1 34.6 11.242 66.469 66.469 0 0 1 23.411 27.01 68.051 68.051 0 0 1 -2.082 61.577 6 6 0 0 1 -5.265 3.114z" fill="#50a6ea"/><path d="m443.283 160.459a6 6 0 0 1 -5.121-9.119 82.339 82.339 0 0 0 8.975-65.34 79.8 79.8 0 0 0 -32.6-44.388 81.641 81.641 0 0 0 -50.1-13.476 6 6 0 0 1 -.671-11.982 93.617 93.617 0 0 1 57.406 15.457 91.822 91.822 0 0 1 37.5 51.073 94.376 94.376 0 0 1 -10.255 74.9 6 6 0 0 1 -5.134 2.875z" fill="#50a6ea"/><g fill="#ccd3df"><path d="m280.907 409.939a6 6 0 0 1 -.6-11.969c3.168-.324 6.371-.728 9.519-1.2a6 6 0 1 1 1.79 11.866c-3.337.5-6.732.932-10.09 1.275a6.113 6.113 0 0 1 -.619.028z"/><path d="m317.727 402.736a6 6 0 0 1 -1.685-11.759 197.065 197.065 0 0 0 50.958-23.217 6 6 0 0 1 6.477 10.1 209.012 209.012 0 0 1 -54.061 24.63 6.007 6.007 0 0 1 -1.689.246z"/><path d="m68.426 277.832a6 6 0 0 1 -5.627-3.917 210.452 210.452 0 0 1 -8.629-116.3 6 6 0 0 1 11.746 2.454 198.469 198.469 0 0 0 8.136 109.676 6 6 0 0 1 -5.626 8.086z"/><path d="m98.531 331.9a5.99 5.99 0 0 1 -4.741-2.317c-3.991-5.134-7.783-10.509-11.269-15.978a6 6 0 1 1 10.119-6.451c3.286 5.155 6.86 10.223 10.623 15.063a6 6 0 0 1 -4.732 9.683z"/></g></svg>