<svg id="Layer_1" height="512" viewBox="0 0 512 512" width="512" xmlns="http://www.w3.org/2000/svg" data-name="Layer 1"><path d="m388.08 32.46a534.447 534.447 0 0 0 -163.82 82.11l-112.98 83.59 202.26 202.27 83.59-112.99a534.473 534.473 0 0 0 82.12-163.82c-48-3.54-87.63-43.17-91.17-91.16z" fill="#e5f5fd"/><path d="m388.08 32.46a534.447 534.447 0 0 0 -163.82 82.11l-112.98 83.59 25 24 112.98-83.59a534.476 534.476 0 0 1 145.929-76.37 95.862 95.862 0 0 1 -7.109-29.74z" fill="#a6b7d0"/><path d="m476.1 11.88a20 20 0 0 1 23.72 23.72l-9.53 44.91c-.32 1.52-.65 3.05-1 4.57l-.14-.03c-33.52-1-61.5-28.98-62.5-62.49l-.03-.15c1.52-.35 3.05-.68 4.57-1z" fill="#e5f5fd"/><path d="m489.15 85.05.14.03q-4.29 19.485-10.04 38.54c-48-3.54-87.63-43.17-91.17-91.16q19.05-5.745 38.54-10.05l.03.15c1 33.51 28.98 61.49 62.5 62.49z" fill="#ed6337"/><path d="m313.54 400.43a57.708 57.708 0 0 0 -15.85-29.43 58.179 58.179 0 0 1 -3.01-79.05l-.3.3-86.49 86.5 82.18 82.18 7.62-7.62a58.125 58.125 0 0 0 15.85-52.88z" fill="#ed6337"/><path d="m254.406 452.877h32.329v22.826h-32.329z" fill="#a6b7d0" transform="matrix(.707 -.707 .707 .707 -249.056 327.316)"/><path d="m192.976 384.924h32.332v35.882h-32.332z" fill="#a6b7d0" transform="matrix(.707 -.707 .707 .707 -223.582 265.787)"/><path d="m222.86 477.73a19.856 19.856 0 0 1 -17.42 19.71l-25.29 3.13 3.13-25.29a19.866 19.866 0 0 1 39.58 2.45z" fill="#fadf4a"/><path d="m181.86 231.06a58.013 58.013 0 0 1 -41.16-17.05 58.206 58.206 0 0 0 -82.31 0l-7.62 7.62 82.19 82.19 86.5-86.5c.1-.1.19-.19.29-.28a58.02 58.02 0 0 1 -37.89 14.02z" fill="#ed6337"/><path d="m92.295 283.696h32.329v36.967h-32.329z" fill="#a6b7d0" transform="matrix(.707 -.707 .707 .707 -181.905 165.197)"/><path d="m123.78 410.66a19.842 19.842 0 0 1 -17.42 19.71l-25.28 3.13 3.13-25.28a19.891 19.891 0 0 1 14.77-16.8 19.861 19.861 0 0 1 24.8 19.24z" fill="#fadf4a"/><path d="m66.91 237.77-16.14-16.14-22.86 22.86 16.14 16.15 22.87-22.86z" fill="#a6b7d0"/><path d="m54.43 309.3a19.842 19.842 0 0 1 -17.42 19.71l-25.28 3.14 3.13-25.29a19.861 19.861 0 0 1 39.57 2.44z" fill="#fadf4a"/><path d="m369.09 131.86a11.071 11.071 0 0 0 -2.87.39 329.665 329.665 0 0 0 -146.47 84.79c-.1.09-.19.18-.29.28l-132.23 132.22 74.93 74.93 132.22-132.22.3-.3a329.614 329.614 0 0 0 84.77-146.47 10.8 10.8 0 0 0 -10.36-13.62z" fill="#5f6a78"/><path d="m238.06 401.1h-1.78l-20.92 20.92 40.67 40.67 20.92-20.92.02-1.03a39.05 39.05 0 0 0 -38.91-39.64z" fill="#50a6ea"/><path d="m211.609 423.574h28.217v57.513h-28.217z" fill="#ed6337" transform="matrix(.707 -.707 .707 .707 -253.734 292.089)"/><path d="m70.83 234.74c-.3 0-.59 0-.89.01l-20.93 20.93 39.91 39.9 20.92-20.92.01-.54a39.054 39.054 0 0 0 -39.02-39.38z" fill="#50a6ea"/><path d="m44.883 257.388h28.214v56.434h-28.214z" fill="#ed6337" transform="matrix(.707 -.707 .707 .707 -184.675 125.363)"/><path d="m369.09 131.86a11.071 11.071 0 0 0 -2.87.39 329.665 329.665 0 0 0 -146.47 84.79c-.1.09-.19.18-.29.28l-132.23 132.22 25 24 132.23-132.22c.1-.1.19-.19.29-.28a329.64 329.64 0 0 1 130.012-79.849q2.535-7.785 4.688-15.711a10.8 10.8 0 0 0 -10.36-13.62z" fill="#475673"/><path d="m430.65 42.56-.03-.15c1.52-.35 3.05-.68 4.57-1l44.91-9.53a19.89 19.89 0 0 1 19.163 6.347l.557-2.627a20 20 0 0 0 -23.72-23.72l-44.91 9.53c-1.52.32-3.05.65-4.57 1l.03.15a62.436 62.436 0 0 0 4.009 20.16c-.002-.053-.008-.106-.009-.16z" fill="#a6b7d0"/><path d="m88.092 475.729h-8.6a6 6 0 0 1 0-12h8.6a37.454 37.454 0 0 0 8.705-1.024 6 6 0 0 1 2.795 11.67 49.493 49.493 0 0 1 -11.5 1.354z" fill="#ef9538"/><path d="m59.789 475.727h-14.91a6 6 0 0 1 -5.885-4.83 52.8 52.8 0 0 1 8.829-37.797l-3.1-.079a6 6 0 0 1 -5.848-6 49.594 49.594 0 0 1 14.815-35.419 48.661 48.661 0 0 1 40.625-13.912c1.547.193 3.15.475 4.746.837a49.269 49.269 0 0 1 37.063 37.232c.345 1.549.613 3.115.8 4.655a49.142 49.142 0 0 1 -14.033 40.895 6 6 0 0 1 -8.485-8.485 36.981 36.981 0 0 0 10.9-26.315 37.521 37.521 0 0 0 -.292-4.625c-.143-1.188-.343-2.356-.6-3.515a37.275 37.275 0 0 0 -28.007-28.14c-1.2-.273-2.418-.487-3.594-.634a36.669 36.669 0 0 0 -30.666 10.525 37.75 37.75 0 0 0 -10.82 21.063l9.722.247a6 6 0 0 1 3.817 10.5 41.48 41.48 0 0 0 -14.482 31.8h9.407a6 6 0 1 1 0 12z" fill="#ef9538"/><path d="m132.283 480.17a6 6 0 0 1 -3.512-10.869 36.981 36.981 0 0 0 14.983-24.225 37.816 37.816 0 0 0 .454-4.615 35.533 35.533 0 0 0 -.03-3.562 6 6 0 0 1 11.98-.7c.092 1.578.106 3.166.041 4.719a49.437 49.437 0 0 1 -.6 6.069 48.913 48.913 0 0 1 -19.815 32.048 5.972 5.972 0 0 1 -3.501 1.135z" fill="#ccd3df"/><path d="m35.713 397.489a6 6 0 0 1 -5.609-8.131c7.626-20.085 27.685-33.276 48.819-32.072a6 6 0 0 1 -.682 11.981c-15.972-.919-31.131 9.107-36.918 24.351a6 6 0 0 1 -5.61 3.871z" fill="#ccd3df"/><g fill="#91a4bc"><path d="m339.093 332.551a5.979 5.979 0 0 1 -4.243-1.758l-13.717-13.717a6 6 0 0 1 8.486-8.485l13.717 13.717a6 6 0 0 1 -4.243 10.243z"/><path d="m354.335 309.688a5.978 5.978 0 0 1 -4.242-1.757l-17.529-17.531a6 6 0 0 1 8.485-8.486l17.528 17.529a6 6 0 0 1 -4.242 10.242z"/><path d="m370.339 287.587a5.982 5.982 0 0 1 -4.242-1.757l-22.1-22.1a6 6 0 1 1 8.484-8.485l22.1 22.1a6 6 0 0 1 -4.242 10.242z"/><path d="m198.868 192.326a5.982 5.982 0 0 1 -4.242-1.757l-13.718-13.718a6 6 0 1 1 8.485-8.485l13.717 13.717a6 6 0 0 1 -4.242 10.243z"/><path d="m225.542 180.9a5.982 5.982 0 0 1 -4.242-1.757l-17.529-17.529a6 6 0 0 1 8.485-8.485l17.528 17.528a6 6 0 0 1 -4.242 10.243z"/><path d="m252.215 169.463a5.982 5.982 0 0 1 -4.242-1.757l-22.1-22.1a6 6 0 0 1 8.484-8.485l22.1 22.1a6 6 0 0 1 -4.242 10.242z"/></g><path d="m95.225 505.858a7.075 7.075 0 1 1 5-2.07 7.052 7.052 0 0 1 -5 2.07z" fill="#ccd3df"/><path d="m20.539 427.682a8.156 8.156 0 1 1 5.767-2.389 8.1 8.1 0 0 1 -5.767 2.389z" fill="#ccd3df"/><path d="m12.919 454.258a6.534 6.534 0 1 1 4.629-1.916l-.011.01a6.516 6.516 0 0 1 -4.618 1.906z" fill="#ccd3df"/><path d="m170.671 447.4a6.538 6.538 0 1 1 4.625-1.916 6.495 6.495 0 0 1 -4.625 1.916z" fill="#ccd3df"/><path d="m296.35 215.35a20.171 20.171 0 0 1 0 28.51l-14.22 14.21-28.5-28.5 14.21-14.22a20.165 20.165 0 0 1 28.51 0z" fill="#a6b7d0"/><path d="m240.286 235.097h32.329v40.305h-32.329z" fill="#50a6ea" transform="matrix(.707 -.707 .707 .707 -105.377 256.099)"/><path d="m259.27 280.93-22.86 22.87-28.51-28.51 22.87-22.86z" fill="#a6b7d0"/><path d="m194.559 280.82h32.332v40.316h-32.332z" fill="#50a6ea" transform="matrix(.707 -.707 .707 .707 -151.103 237.159)"/><path d="m171.696 303.686h32.332v40.309h-32.332z" fill="#a6b7d0" transform="matrix(.707 -.707 .707 .707 -173.945 227.61)"/></svg>