<svg id="Layer_1" height="512" viewBox="0 0 512 512" width="512" xmlns="http://www.w3.org/2000/svg" data-name="Layer 1"><path d="m323.624 320.107h12v15.629h-12z" fill="#4a5160" transform="matrix(.67 -.742 .742 .67 -134.67 352.718)"/><circle cx="316.171" cy="315.838" fill="#ed6337" r="13.838"/><path d="m319.026 374.547h139.001v12h-139.001z" fill="#4a5160" transform="matrix(.67 -.742 .742 .67 -154.305 413.753)"/><path d="m464.362 287.02h28.466v26.455h-28.466z" fill="#e5f5fd" transform="matrix(.67 -.742 .742 .67 -64.994 454.235)"/><path d="m478.87 319.68-28.21 31.22-19.63-17.73.29-.33 27.92-30.9z" fill="#a6b7d0"/><path d="m444.734 269.289h28.462v26.452h-28.462z" fill="#a6b7d0" transform="matrix(.67 -.742 .742 .67 -58.343 433.696)"/><path d="m459.24 301.94-27.92 30.9-.29.33-19.63-17.73 28.21-31.23z" fill="#e5f5fd"/><path d="m423.33 391.32-20.95 23.19-13.09-11.82 20.96-23.2z" fill="#a6b7d0"/><path d="m392.96 352-32.77 36.28 23.19 20.95 32.78-36.28z" fill="#ed6337"/><path d="m340.532 344.037h48.892v31.256h-48.892z" fill="#50a6ea" transform="matrix(.67 -.742 .742 .67 -146.575 389.357)"/><path d="m319.988 439.314h42.085v26.452h-42.085z" fill="#a6b7d0" transform="matrix(.67 -.742 .742 .67 -223.387 402.265)"/><path d="m351.48 311.82 6.47 32.31-9.13 10.11-32.8-3.15z" fill="#fadf4a"/><path d="m300.36 421.58h42.081v26.455h-42.081z" fill="#e5f5fd" transform="matrix(.67 -.742 .742 .67 -216.7 381.852)"/><path d="m303.154 465.489h28.462v26.452h-28.462z" fill="#e5f5fd" transform="matrix(.67 -.742 .742 .67 -250.601 393.314)"/><path d="m323.66 213.86a110.162 110.162 0 0 1 -4.13 29.97l-3.16.32c-.26.03-.51.05-.77.06l-2.66.12a18.5 18.5 0 0 0 -16.19 11.1l-.68 1.55a14.567 14.567 0 0 1 -13.35 8.72h-11.35a5.255 5.255 0 0 1 -5.24-4.74l-.45-4.54a18.43 18.43 0 0 0 -8.38-13.7 6.478 6.478 0 0 1 -2.98-5.46v-4.55a8.909 8.909 0 0 1 3.01-6.66l19.38-17.12a19.1 19.1 0 0 0 5.62-19.8 19.477 19.477 0 0 0 -16.24-13.67l-1.96-.24a9.514 9.514 0 0 1 -6.03-3.19 5.421 5.421 0 0 1 -.66-6.21l4.06-6.93a139.376 139.376 0 0 1 17.65-23.89l4.38-6.1a109.777 109.777 0 0 1 40.13 84.96z" fill="#9be147"/><path d="m316.37 244.15 3.16-.32a110.018 110.018 0 0 1 -215.87-29.97q0-5.19.48-10.26l1.32.12 1.5-.3a17.419 17.419 0 0 1 18.4 8.35 17.593 17.593 0 0 0 3.16 3.97l7.82 7.36a11.708 11.708 0 0 0 4.95 2.78l.91.25a15.9 15.9 0 0 1 11.1 11.05l4.19 15.13a14.876 14.876 0 0 0 2.5 5.02l12.7 16.65a16.038 16.038 0 0 1 3.07 7.09l3.45 20.72a3.072 3.072 0 0 0 1.07 1.9 2.963 2.963 0 0 0 2.98.42 5.864 5.864 0 0 0 3.57-4.87 21.047 21.047 0 0 1 4.85-11.49l3.69-4.42a7.824 7.824 0 0 0 1.44-2.66l3.78-12.27a18.209 18.209 0 0 1 6.34-9.12l11.25-8.64a4.037 4.037 0 0 0 1.55-2.51 3.835 3.835 0 0 0 -.86-3.11l-7.49-8.81c-.45-.53-.88-1.07-1.28-1.64l-5.72-7.98a16.618 16.618 0 0 0 -13.67-7.2 2.851 2.851 0 0 1 -1.56-.41l-11.7-7.02a11.393 11.393 0 0 0 -11.18-.27l-6.17 3.3a12.12 12.12 0 0 1 -15.96-4.19l-5.99-9.46a13.036 13.036 0 0 1 .22-14.27 14.676 14.676 0 0 1 14.06-6.36l8.99 1.14a8.08 8.08 0 0 0 8.02-3.84 14.2 14.2 0 0 1 14.07-6.95l3.93.5a8 8 0 0 0 7.32-3.04l3.46-4.49a11.692 11.692 0 0 0 .35-13.84l-7.47-10.77a34.456 34.456 0 0 0 -10.93-10.12 32.965 32.965 0 0 1 -3.29-2.19l-6.29-4.72-7.96-6a110.073 110.073 0 0 1 120.9 12.51l-4.38 6.1a139.376 139.376 0 0 0 -17.65 23.89l-4.06 6.93a5.421 5.421 0 0 0 .66 6.21 9.514 9.514 0 0 0 6.03 3.19l1.96.24a19.477 19.477 0 0 1 16.24 13.67 19.1 19.1 0 0 1 -5.62 19.8l-19.38 17.12a8.909 8.909 0 0 0 -3.01 6.66v4.55a6.478 6.478 0 0 0 2.98 5.46 18.43 18.43 0 0 1 8.38 13.7l.45 4.54a5.255 5.255 0 0 0 5.24 4.74h11.35a14.567 14.567 0 0 0 13.35-8.72l.68-1.55a18.5 18.5 0 0 1 16.19-11.1l2.66-.12c.26-.01.51-.03.77-.06z" fill="#49bdff"/><path d="m283.522 447.755h28.466v26.455h-28.466z" fill="#a6b7d0" transform="matrix(.67 -.742 .742 .67 -243.899 372.81)"/><path d="m218.87 245.02a3.835 3.835 0 0 1 .86 3.11 4.037 4.037 0 0 1 -1.55 2.51l-11.25 8.64a18.209 18.209 0 0 0 -6.34 9.12l-3.78 12.27a7.824 7.824 0 0 1 -1.44 2.66l-3.69 4.42a21.047 21.047 0 0 0 -4.85 11.49 5.864 5.864 0 0 1 -3.57 4.87 2.963 2.963 0 0 1 -2.98-.42 3.072 3.072 0 0 1 -1.07-1.9l-3.45-20.72a16.038 16.038 0 0 0 -3.07-7.09l-12.7-16.65a14.876 14.876 0 0 1 -2.5-5.02l-4.19-15.13a15.9 15.9 0 0 0 -11.1-11.05l-.91-.25a11.708 11.708 0 0 1 -4.95-2.78l-7.82-7.36a17.593 17.593 0 0 1 -3.16-3.97 17.419 17.419 0 0 0 -18.4-8.35l-1.5.3-1.32-.12a110.01 110.01 0 0 1 58.49-87.21l7.96 6 6.29 4.72a32.965 32.965 0 0 0 3.29 2.19 34.456 34.456 0 0 1 10.93 10.12l7.47 10.77a11.692 11.692 0 0 1 -.35 13.84l-3.46 4.49a8 8 0 0 1 -7.32 3.04l-3.93-.5a14.2 14.2 0 0 0 -14.07 6.95 8.08 8.08 0 0 1 -8.02 3.84l-8.99-1.14a14.676 14.676 0 0 0 -14.06 6.36 13.036 13.036 0 0 0 -.22 14.27l5.99 9.46a12.12 12.12 0 0 0 15.96 4.19l6.17-3.3a11.393 11.393 0 0 1 11.18.27l11.7 7.02a2.851 2.851 0 0 0 1.56.41 16.618 16.618 0 0 1 13.67 7.2l5.72 7.98c.4.57.83 1.11 1.28 1.64z" fill="#9be147"/><path d="m213.66 103.86a109.527 109.527 0 0 0 -51.03 12.53l7.96 6 6.29 4.72a32.965 32.965 0 0 0 3.29 2.19 34.636 34.636 0 0 1 5.269 3.8l1.191-.715a110.155 110.155 0 0 1 96.376-2.761l.524-.729a109.474 109.474 0 0 0 -69.87-25.035z" fill="#55d8d8"/><path d="m127.66 229.86q0-5.19.48-10.26l.38-3.86a17.593 17.593 0 0 1 -3.16-3.97 17.419 17.419 0 0 0 -18.4-8.35l-1.5.3-1.32-.12q-.48 5.07-.48 10.26a110 110 0 0 0 61.576 98.787 109.735 109.735 0 0 1 -37.576-82.787z" fill="#55d8d8"/><path d="m128.563 215.781a110.026 110.026 0 0 1 56.829-82.717 34.52 34.52 0 0 0 -5.222-3.764 32.965 32.965 0 0 1 -3.29-2.19l-6.29-4.72-7.96-6a110.01 110.01 0 0 0 -58.49 87.21l1.32.12 1.5-.3a17.419 17.419 0 0 1 18.4 8.35 17.593 17.593 0 0 0 3.16 3.97z" fill="#d8ff33"/><path d="m199.966 419.4c-.136 0-.273 0-.409-.014l-1.026-.072a6 6 0 1 1 .863-11.968l.969.067a6 6 0 0 1 -.4 11.987zm39.887-1.238a6 6 0 0 1 -.773-11.95l.963-.128a6 6 0 1 1 1.619 11.89l-1.019.136a6.045 6.045 0 0 1 -.79.047zm-80.213-5.682a5.974 5.974 0 0 1 -1.62-.223l-.99-.28a6 6 0 1 1 3.289-11.54l.934.264a6 6 0 0 1 -1.613 11.779zm120.03-3.766a6 6 0 0 1 -1.979-11.665l.92-.324a6 6 0 1 1 4 11.311l-.967.341a5.977 5.977 0 0 1 -1.974.332zm-158.1-11.265a5.969 5.969 0 0 1 -2.762-.678l-.91-.475a6 6 0 0 1 5.576-10.626l.868.454a6 6 0 0 1 -2.772 11.325zm195.138-6.138a6 6 0 0 1 -3.1-11.138l.833-.5a6 6 0 1 1 6.237 10.252l-.872.528a5.968 5.968 0 0 1 -3.096.853zm-229.329-16.354a5.978 5.978 0 0 1 -3.787-1.349l-.8-.658a6 6 0 1 1 7.637-9.255l.746.611a6 6 0 0 1 -3.8 10.651zm-28.917-28.948a5.99 5.99 0 0 1 -4.66-2.216l-.649-.8a6 6 0 0 1 9.354-7.517l.607.75a6 6 0 0 1 -4.652 9.785zm-22.452-34.2a6 6 0 0 1 -5.328-3.233l-.474-.917a6 6 0 1 1 10.68-5.473l.44.854a6 6 0 0 1 -5.318 8.769zm-15.01-38.069a6 6 0 0 1 -5.775-4.383l-.277-1a6 6 0 1 1 11.576-3.162l.256.927a6 6 0 0 1 -5.78 7.618zm-6.893-40.33a6 6 0 0 1 -5.98-5.6l-.067-1.033a6 6 0 0 1 11.977-.738l.062.963a6 6 0 0 1 -5.582 6.39c-.135.014-.272.018-.408.018zm1.414-40.893a6.076 6.076 0 0 1 -.815-.055 6 6 0 0 1 -5.138-6.753l.143-1.027a6 6 0 0 1 11.881 1.689l-.133.954a6 6 0 0 1 -5.936 5.192zm9.679-39.753a6 6 0 0 1 -5.652-8.014l.346-.964a6 6 0 0 1 11.291 4.062l-.332.927a6 6 0 0 1 -5.653 3.989zm17.61-36.938a6 6 0 0 1 -5.118-9.124l.538-.878a6 6 0 0 1 10.217 6.3l-.509.829a6 6 0 0 1 -5.128 2.873zm24.775-32.578a6 6 0 0 1 -4.38-10.1l.707-.751a6 6 0 0 1 8.719 8.245l-.664.7a5.981 5.981 0 0 1 -4.382 1.906zm30.856-26.882a6 6 0 0 1 -3.467-10.9l.851-.6a6 6 0 1 1 6.858 9.848l-.784.549a5.965 5.965 0 0 1 -3.458 1.103zm195.979-19.532a5.982 5.982 0 0 1 -2.42-.515l-.891-.391a6 6 0 0 1 4.8-11l.948.416a6 6 0 0 1 -2.431 11.489zm-160.32-.523a6 6 0 0 1 -2.393-11.5l.943-.407a6 6 0 1 1 4.721 11.032l-.885.382a5.974 5.974 0 0 1 -2.386.493zm121.394-12.073a6 6 0 0 1 -1.254-.133l-.953-.2a6 6 0 0 1 2.445-11.748l1 .211a6 6 0 0 1 -1.242 11.87zm-82.4-.266a6 6 0 0 1 -1.203-11.872l1.021-.207a6 6 0 0 1 2.347 11.768l-.941.191a5.985 5.985 0 0 1 -1.218.12zm41.712-4.112h-.036-.965a6 6 0 0 1 0-12h1.036a6 6 0 0 1 -.035 12z" fill="#9be147"/></svg>