<?xml version="1.0" encoding="iso-8859-1"?>
<!-- Generator: Adobe Illustrator 19.0.0, SVG Export Plug-In . SVG Version: 6.00 Build 0)  -->
<svg version="1.1" id="Layer_1" xmlns="http://www.w3.org/2000/svg" xmlns:xlink="http://www.w3.org/1999/xlink" x="0px" y="0px"
	 viewBox="0 0 330 330" style="enable-background:new 0 0 330 330;" xml:space="preserve">
<g id="XMLID_520_">
	<path id="XMLID_521_" d="M7.105,221.52l30,51.961c3.576,6.192,11.025,9,17.797,6.709l44.144-14.934
		c3.901,2.572,7.946,4.912,12.109,7.006l9.136,45.68C121.693,324.953,127.85,330,135,330h60c7.15,0,13.307-5.047,14.709-12.058
		l9.136-45.68c4.163-2.094,8.207-4.435,12.108-7.006l44.145,14.934c6.772,2.289,14.222-0.516,17.797-6.709l30-51.962
		c3.575-6.192,2.283-14.047-3.088-18.767l-35.01-30.767c0.135-2.331,0.203-4.664,0.203-6.985c0-2.322-0.068-4.655-0.203-6.986
		l35.008-30.766c5.371-4.72,6.663-12.575,3.088-18.767l-30-51.962c-3.575-6.192-11.025-9.001-17.797-6.709l-44.143,14.934
		c-3.9-2.572-7.945-4.912-12.108-7.006l-9.136-45.68C208.307,5.047,202.15,0,195,0h-60c-7.15,0-13.307,5.047-14.709,12.058
		l-9.136,45.68c-4.163,2.094-8.207,4.435-12.108,7.006L54.902,49.81c-6.77-2.29-14.221,0.517-17.797,6.709l-30,51.962
		c-3.575,6.192-2.283,14.047,3.088,18.767l35.008,30.766C45.067,160.342,45,162.675,45,165s0.067,4.659,0.201,6.986l-35.008,30.766
		C4.822,207.472,3.53,215.327,7.105,221.52z M165,105c33.084,0,60,26.916,60,60s-26.916,60-60,60s-60-26.916-60-60
		S131.916,105,165,105z"/>
</g>
<g>
</g>
<g>
</g>
<g>
</g>
<g>
</g>
<g>
</g>
<g>
</g>
<g>
</g>
<g>
</g>
<g>
</g>
<g>
</g>
<g>
</g>
<g>
</g>
<g>
</g>
<g>
</g>
<g>
</g>
</svg>
