<?xml version="1.0" standalone="no"?>
<!DOCTYPE svg PUBLIC "-//W3C//DTD SVG 20010904//EN"
 "http://www.w3.org/TR/2001/REC-SVG-20010904/DTD/svg10.dtd">
<svg version="1.0" xmlns="http://www.w3.org/2000/svg"
 width="512.000000pt" height="512.000000pt" viewBox="0 0 512.000000 512.000000"
 preserveAspectRatio="xMidYMid meet">

<g transform="translate(0.000000,512.000000) scale(0.100000,-0.100000)"stroke="none">
<path d="M2044 5101 c-77 -35 -81 -46 -145 -430 -33 -190 -59 -349 -59 -353 0
-4 -51 -32 -112 -63 -62 -31 -160 -88 -218 -126 l-105 -70 -337 127 c-312 117
-341 126 -384 119 -32 -4 -56 -16 -80 -38 -28 -26 -407 -666 -485 -819 -37
-72 -20 -146 47 -209 22 -20 145 -123 274 -229 l234 -192 0 -258 0 -258 -234
-192 c-129 -106 -252 -209 -274 -229 -67 -63 -84 -137 -47 -209 50 -97 455
-790 474 -811 27 -29 76 -51 114 -51 15 0 179 56 363 125 l335 126 110 -73
c61 -40 159 -97 218 -126 59 -29 107 -56 107 -60 0 -4 26 -163 59 -353 64
-384 68 -395 145 -430 38 -17 74 -19 516 -19 442 0 478 2 516 19 77 35 81 46
145 430 33 190 59 349 59 353 0 4 51 32 113 63 61 31 159 88 217 126 l105 70
337 -127 c312 -117 341 -126 384 -119 32 4 56 16 80 38 28 26 407 666 485 819
37 72 20 146 -47 209 -22 20 -145 123 -274 229 l-234 192 0 258 0 258 234 192
c129 106 252 209 274 229 67 63 84 137 47 209 -78 153 -457 793 -485 819 -24
22 -48 34 -80 38 -43 7 -72 -2 -384 -119 l-337 -127 -110 73 c-61 40 -159 97
-218 126 -59 29 -107 56 -107 60 0 4 -26 163 -59 353 -64 384 -68 395 -145
430 -38 17 -74 19 -516 19 -442 0 -478 -2 -516 -19z m-7 -1741 c8 0 28 -13 44
-29 l29 -29 0 -335 c0 -203 4 -346 10 -364 9 -24 44 -48 215 -146 113 -64 214
-117 225 -117 11 0 112 53 225 117 171 98 206 122 215 146 6 18 10 160 10 363
0 331 0 333 23 359 28 33 84 47 124 30 69 -29 209 -185 282 -316 173 -309 157
-723 -38 -1022 -136 -208 -341 -356 -588 -424 -87 -25 -115 -28 -253 -28 -138
0 -166 3 -253 28 -247 68 -452 216 -588 424 -195 299 -211 713 -38 1022 95
170 271 345 327 326 8 -3 20 -5 29 -5z m514 -2130 c119 -1 304 19 331 36 4 3
8 -207 8 -465 l0 -471 -330 0 -330 0 0 468 0 469 93 -19 c60 -11 139 -18 228
-18z"/>
</g>
</svg>
