<svg id="Layer_1" height="512" viewBox="0 0 512 512" width="512" xmlns="http://www.w3.org/2000/svg" data-name="Layer 1"><path d="m454.37 57.63a113.986 113.986 0 0 1 13.93 144.25 26.294 26.294 0 0 0 -6.99-12.47l-140.18-140.18a26.123 26.123 0 0 0 -9.95-6.24 113.969 113.969 0 0 1 143.19 14.64z" fill="#ed2e2e"/><path d="m311.18 42.99a26.123 26.123 0 0 1 9.95 6.24l140.18 140.18a26.329 26.329 0 0 1 -37.24 37.23l-140.17-140.17a26.326 26.326 0 0 1 27.28-43.48z" fill="#72bcef"/><path d="m345.97 248.69a113.029 113.029 0 0 1 -27.51-10.87l-.05-.06 13.67-11.38a50.683 50.683 0 0 0 -46.41-47.13l-.78-.06-11.2 13.44a113.117 113.117 0 0 1 -10.38-26.6 114.446 114.446 0 0 1 .7-58.31 113.106 113.106 0 0 1 13.66-30.72l.14-.05a26.153 26.153 0 0 0 6.09 9.52l140.17 140.17a26.2 26.2 0 0 0 12.09 6.89l-.02.06a113.145 113.145 0 0 1 -31.87 14.41 114.407 114.407 0 0 1 -58.3.69z" fill="#ed2e2e"/><path d="m404.27 248-177.24 237.53a5.475 5.475 0 0 1 -9.87-3.28 5.405 5.405 0 0 1 .69-2.65l128.12-230.91a114.407 114.407 0 0 0 58.3-.69z" fill="#ccdaea"/><path d="m273.69 192.63 11.2-13.44.78.06a50.683 50.683 0 0 1 46.41 47.13l-13.67 11.38-221.17 184.03a5.485 5.485 0 0 1 -7.38-.34l-.18-.17a5.487 5.487 0 0 1 -.33-7.39z" fill="#ccdaea"/><path d="m26.47 284.97 237.54-177.25a114.446 114.446 0 0 0 -.7 58.31l-230.91 128.12a5.405 5.405 0 0 1 -2.65.69 5.475 5.475 0 0 1 -3.28-9.87z" fill="#ccdaea"/><g fill="#fadf4a"><circle cx="432.595" cy="196.225" r="10.161"/><path d="m410.58 159.83a10.168 10.168 0 1 1 -14.38 0 10.17 10.17 0 0 1 14.38 0z"/><circle cx="374.185" cy="137.815" r="10.161"/><path d="m352.17 101.42a10.168 10.168 0 1 1 -14.38 0 10.17 10.17 0 0 1 14.38 0z"/><circle cx="315.775" cy="79.405" r="10.161"/></g><path d="m465.88 71.109a113.86 113.86 0 0 0 -154.7-28.119 26.123 26.123 0 0 1 9.95 6.24l17.328 17.328a114.007 114.007 0 0 1 127.422 4.551z" fill="#ff8164"/><path d="m302.827 105.4-25.017-28.45-.14.05a113.106 113.106 0 0 0 -13.66 30.72 114.446 114.446 0 0 0 -.7 58.31 113.117 113.117 0 0 0 10.38 26.6l18.331-12.443a113.853 113.853 0 0 1 10.806-74.79z" fill="#ff8164"/><path d="m380.64 50.693c-.154 0-.308 0-.463-.018a90.618 90.618 0 0 0 -9.969-.207 6 6 0 0 1 -.414-11.993 102.606 102.606 0 0 1 11.3.235 6 6 0 0 1 -.449 11.983z" fill="#ccd3df"/><path d="m439.766 77.5a5.982 5.982 0 0 1 -4.243-1.757 86.628 86.628 0 0 0 -36.486-21.588 6 6 0 1 1 3.424-11.5 98.666 98.666 0 0 1 41.547 24.6 6 6 0 0 1 -4.242 10.245z" fill="#ccd3df"/><path d="m318.3 436.219a6 6 0 0 1 -4.8-9.588l22.122-29.649a6 6 0 1 1 9.617 7.177l-22.122 29.648a5.988 5.988 0 0 1 -4.817 2.412z" fill="#ccd3df"/><path d="m357.631 383.509a6 6 0 0 1 -4.8-9.589l17.681-23.695a6 6 0 0 1 9.617 7.177l-17.685 23.698a5.988 5.988 0 0 1 -4.813 2.409z" fill="#ccd3df"/></svg>