<svg id="Layer_1" height="512" viewBox="0 0 512 512" width="512" xmlns="http://www.w3.org/2000/svg" data-name="Layer 1"><path d="m291.94 357.48-16.86 5.93-4.68 17.25-10.85-14.21-17.85.88 10.16-14.71-6.36-16.7 17.13 5.12 13.93-11.21.42 17.87z" fill="#fadf4a"/><path d="m221.28 353.7-45.65 23.11-6.84 50.71-36.09-36.27-50.34 9.16 23.34-45.53-24.27-45.04 50.52 8.13 35.34-37 7.87 50.55z" fill="#50a6ea"/><path d="m212.55 230.46-16.86 5.92-4.68 17.26-10.85-14.21-17.85.88 10.16-14.71-6.36-16.71 17.13 5.12 13.93-11.2.42 17.87z" fill="#ed6337"/><path d="m115.446 394.39 20.254-39.51-21.422-39.754-32.848-5.286 24.27 45.04-23.34 45.53z" fill="#4a7cba"/><g fill="#ccd3df"><path d="m410.931 348.506a6 6 0 0 1 -3.6-10.8l2.622-1.961a6 6 0 1 1 7.186 9.61l-2.622 1.961a5.972 5.972 0 0 1 -3.586 1.19z"/><path d="m370.174 93.158a6 6 0 0 1 -3.786-10.658l24.135-19.6a6 6 0 0 1 7.565 9.315l-24.135 19.6a5.977 5.977 0 0 1 -3.779 1.343z"/><path d="m293.03 155.808a6 6 0 0 1 -3.786-10.658l43.883-35.638a6 6 0 1 1 7.565 9.315l-43.882 35.639a5.98 5.98 0 0 1 -3.78 1.342z"/><path d="m223.229 212.494a6 6 0 0 1 -3.785-10.658l31.756-25.786a6 6 0 1 1 7.564 9.316l-31.752 25.786a5.974 5.974 0 0 1 -3.783 1.342z"/><path d="m462.607 200.409a6 6 0 0 1 -3.866-10.591l21.863-18.4a6 6 0 1 1 7.726 9.182l-21.863 18.4a5.974 5.974 0 0 1 -3.86 1.409z"/><path d="m349.7 295.415a6 6 0 0 1 -3.867-10.591l74.367-62.574a6 6 0 0 1 7.727 9.182l-74.363 62.573a5.977 5.977 0 0 1 -3.864 1.41z"/><path d="m304.115 333.775a6 6 0 0 1 -3.866-10.591l12.262-10.319a6 6 0 0 1 7.727 9.182l-12.263 10.319a5.979 5.979 0 0 1 -3.86 1.409z"/><path d="m401.256 163.559a6 6 0 0 1 -3.707-10.721l89.748-70.4a6 6 0 1 1 7.406 9.441l-89.747 70.4a5.976 5.976 0 0 1 -3.7 1.28z"/><path d="m349.7 204a6 6 0 0 1 -3.7-10.722l13.988-10.978a6 6 0 1 1 7.406 9.442l-13.994 10.978a5.971 5.971 0 0 1 -3.7 1.28z"/><path d="m223.23 303.833a6 6 0 0 1 -3.728-10.705l88.31-69.9a6 6 0 0 1 7.447 9.41l-88.309 69.9a5.978 5.978 0 0 1 -3.72 1.295z"/></g><path d="m27.13 227.523a12.13 12.13 0 1 0 12.13 12.13 12.143 12.143 0 0 0 -12.13-12.13z" fill="#81c83d"/><path d="m82.317 187.462a7.226 7.226 0 1 0 7.226 7.226 7.235 7.235 0 0 0 -7.226-7.226z" fill="#81c83d"/><path d="m327.661 428.635a10.9 10.9 0 1 0 10.9 10.9 10.916 10.916 0 0 0 -10.9-10.9z" fill="#ed6337"/><path d="m320.944 71.08a9.408 9.408 0 1 0 -9.407 9.407 9.418 9.418 0 0 0 9.407-9.407z" fill="#ed6337"/></svg>