<svg id="Layer_1" height="512" viewBox="0 0 512 512" width="512" xmlns="http://www.w3.org/2000/svg" data-name="Layer 1"><path d="m387.54 91.55-240.99-.01c-48.28 11.44-79.47 29.59-79.47 50.02 0 28.06 58.86 51.82 140 59.8 18.93 1.87 39.07 2.87 59.96 2.87s41.03-1 59.96-2.87c81.14-7.98 140-31.74 140-59.8 0-20.43-31.19-38.57-79.46-50.01z" fill="#5f6a78"/><path d="m377.5 459.82a12.915 12.915 0 0 1 .52 3.64c0 20.73-49.47 37.54-110.48 37.54s-110.48-16.81-110.48-37.54a13.47 13.47 0 0 1 .32-2.89c4.34-19.38 52-34.64 110.16-34.64 57.4 0 104.58 14.87 109.96 33.89z" fill="#71c3d7"/><path d="m327.03 201.71 50.64 258.07-.17.04c-5.38-19.02-52.56-33.89-109.96-33.89-58.16 0-105.82 15.26-110.16 34.64l-.06-.01 49.73-258.85.03-.35c18.93 1.87 39.07 2.87 59.96 2.87s41.03-1 59.96-2.87z" fill="#aedeea"/><path d="m397.45 141.56.18.37c-27.72 13.4-75.85 22.26-130.59 22.26-53.68 0-101.02-8.52-128.96-21.49l-1.45-1.14a130.41 130.41 0 1 1 260.82 0z" fill="#e5f5fd"/><path d="m237.08 201.36c-81.14-7.98-140-31.74-140-59.8 0-20.429 31.187-38.579 79.465-50.019h-29.995c-48.28 11.44-79.47 29.59-79.47 50.02 0 28.06 58.86 51.82 140 59.8 18.93 1.87 39.07 2.87 59.96 2.87q7.57 0 15-.176c-15.548-.362-30.603-1.277-44.96-2.695z" fill="#475673"/><path d="m168.08 142.7-1.45-1.14a130.453 130.453 0 0 1 115.41-129.705 130.525 130.525 0 0 0 -135.49 79.685 130.234 130.234 0 0 0 -9.92 50.02l1.45 1.14c27.94 12.97 75.28 21.49 128.96 21.49q7.585 0 14.99-.224c-47.43-1.423-88.646-9.519-113.95-21.266z" fill="#a6b7d0"/><path d="m175.6 186.185a6.008 6.008 0 0 1 -5.937-6.925 2.756 2.756 0 0 0 -2.29-3.149 2.747 2.747 0 0 0 -3.135 2.3 6 6 0 1 1 -11.857-1.849 14.746 14.746 0 1 1 29.14 4.549 6 6 0 0 1 -5.921 5.074z" fill="#475673"/><path d="m215.59 191.408a6.008 6.008 0 0 1 -5.937-6.926 2.757 2.757 0 0 0 -2.289-3.149 2.748 2.748 0 0 0 -3.135 2.3 6 6 0 0 1 -11.858-1.848 14.746 14.746 0 1 1 29.14 4.549 6 6 0 0 1 -5.921 5.074z" fill="#475673"/><path d="m195.593 69.588a6 6 0 0 1 -4.487-9.982 136.464 136.464 0 0 1 37.579-29.734 6 6 0 1 1 5.681 10.57 124.5 124.5 0 0 0 -34.283 27.129 5.985 5.985 0 0 1 -4.49 2.017z" fill="#91a4bc"/><path d="m175.45 99.91a6 6 0 0 1 -5.408-8.592c1.81-3.779 3.817-7.52 5.97-11.119a6 6 0 0 1 10.3 6.16c-1.963 3.282-3.8 6.693-5.445 10.14a6 6 0 0 1 -5.417 3.411z" fill="#91a4bc"/><path d="m432.9 33.308a25.744 25.744 0 0 1 -16.2-16.2 6 6 0 0 0 -11.385 0 25.741 25.741 0 0 1 -16.2 16.2 6 6 0 0 0 0 11.384 25.741 25.741 0 0 1 16.2 16.2 6 6 0 0 0 11.385 0 25.744 25.744 0 0 1 16.2-16.2 6 6 0 0 0 0-11.384z" fill="#ed6337"/><path d="m78.794 252.77a6.028 6.028 0 0 0 -5.811-3.932 17.758 17.758 0 0 1 -14.374-6.661 6 6 0 0 0 -10.688 3.923 17.808 17.808 0 0 1 -6.663 14.379 6 6 0 0 0 3.921 10.688 17.791 17.791 0 0 1 14.373 6.661 6 6 0 0 0 10.688-3.928 17.8 17.8 0 0 1 6.66-14.373 6 6 0 0 0 1.894-6.757z" fill="#ed6337"/><path d="m443.005 74a10 10 0 1 1 10-10 10.01 10.01 0 0 1 -10 10z" fill="#49bdff"/><path d="m95.073 280a10 10 0 1 1 10-10 10.011 10.011 0 0 1 -10 10z" fill="#49bdff"/><path d="m462 84a7 7 0 1 1 7-7 7.008 7.008 0 0 1 -7 7z" fill="#49bdff"/><path d="m111.07 253a7 7 0 1 1 7-7 7.008 7.008 0 0 1 -7 7z" fill="#49bdff"/><g fill="#71c3d7"><path d="m213.024 332.778a6.007 6.007 0 0 1 -5.9-7.133l16.5-85.906a6 6 0 0 1 11.79 2.261l-16.5 85.907a6 6 0 0 1 -5.89 4.871z"/><path d="m206.05 369.086a6.007 6.007 0 0 1 -5.9-7.133l2.365-12.309a6 6 0 0 1 11.785 2.263l-2.364 12.31a6 6 0 0 1 -5.886 4.869z"/><path d="m335.036 401.405a6 6 0 0 1 -5.881-4.845l-3.7-18.878a6 6 0 0 1 11.776-2.311l3.7 18.878a6 6 0 0 1 -5.895 7.156z"/><path d="m325.312 351.853a6 6 0 0 1 -5.881-4.846l-14.884-75.852a6 6 0 1 1 11.775-2.31l14.884 75.855a6.008 6.008 0 0 1 -5.894 7.157z"/></g></svg>